<svg xmlns="http://www.w3.org/2000/svg" version="1.1" xmlns:xlink="http://www.w3.org/1999/xlink" xmlns:svgjs="http://svgjs.dev/svgjs" width="1500" height="1500" viewBox="0 0 1500 1500"><rect width="1500" height="1500" fill="#ffffff"></rect><g transform="matrix(0.6666666666666666,0,0,0.6666666666666666,249.39393939393938,691.258024914903)"><svg viewBox="0 0 396 47" data-background-color="#cbf5f8" preserveAspectRatio="xMidYMid meet" height="178" width="1500" xmlns="http://www.w3.org/2000/svg" xmlns:xlink="http://www.w3.org/1999/xlink"><g id="tight-bounds" transform="matrix(1,0,0,1,0.2400000000000091,-0.2342177331498192)"><svg viewBox="0 0 395.52 47.468435466299624" height="47.468435466299624" width="395.52"><g><svg viewBox="0 0 395.52 47.468435466299624" height="47.468435466299624" width="395.52"><g><svg viewBox="0 0 395.52 47.468435466299624" height="47.468435466299624" width="395.52"><g id="textblocktransform"><svg viewBox="0 0 395.52 47.468435466299624" height="47.468435466299624" width="395.52" id="textblock"><g><rect width="260.6301073251879" height="2.5239154954001486" y="39.769419380854714" x="134.88989267481207" fill="#000000" data-fill-palette-color="tertiary"></rect></g><g><svg viewBox="0 0 395.52 27.987210164107992" height="27.987210164107992" width="395.52"><g transform="matrix(1,0,0,1,0,0)"><svg width="395.52" viewBox="2.66 -38.43 553.38 39.16" height="27.987210164107992" data-palette-color="url(#6ea6f70b-4216-466c-99b8-8034c71af8c9)"></svg></g></svg></g><g transform="matrix(1,0,0,1,0,34.59431879080995)"><svg viewBox="0 0 134.88989267481207 12.874116675489677" height="12.874116675489677" width="134.88989267481207"><g transform="matrix(1,0,0,1,8,0)"><svg width="118.88989267481207" viewBox="1.8451389444500002 -37 346.26486105555 37.5" height="12.874116675489677" data-palette-color="url(#f56f30c5-bfcb-47ea-b5b5-daa50bd6b8bb)"></svg></g></svg></g></svg></g></svg></g><g></g></svg></g><defs></defs><mask id="8b1bfc94-f69d-4f12-a55e-16eb10790db9"><g id="SvgjsG1518"><svg viewBox="0 0 395.52 47.468435466299624" height="47.468435466299624" width="395.52"><g><svg viewBox="0 0 395.52 47.468435466299624" height="47.468435466299624" width="395.52"><g><svg viewBox="0 0 395.52 47.468435466299624" height="47.468435466299624" width="395.52"><g id="SvgjsG1517"><svg viewBox="0 0 395.52 47.468435466299624" height="47.468435466299624" width="395.52" id="SvgjsSvg1516"><g><rect width="260.6301073251879" height="2.5239154954001486" y="39.769419380854714" x="134.88989267481207" fill="black"></rect></g><g><svg viewBox="0 0 395.52 27.987210164107992" height="27.987210164107992" width="395.52"><g transform="matrix(1,0,0,1,0,0)"><svg width="395.52" viewBox="2.66 -38.43 553.38 39.16" height="27.987210164107992" data-palette-color="url(#6ea6f70b-4216-466c-99b8-8034c71af8c9)"><path d="M2.66-18.46L2.66-18.46Q2.66-21.97 3.43-24.82 4.2-27.66 5.54-29.88 6.88-32.1 8.69-33.72 10.5-35.33 12.6-36.38 14.7-37.43 16.98-37.93 19.26-38.43 21.53-38.43L21.53-38.43Q23.61-38.43 25.61-38.05 27.61-37.67 29.57-36.99L29.57-36.99Q30.15-36.77 30.75-36.56 31.35-36.35 31.82-36.04 32.3-35.72 32.59-35.23 32.89-34.74 32.89-33.98L32.89-33.98Q32.89-33.11 32.6-32.53 32.32-31.96 31.88-31.62 31.45-31.27 30.92-31.13 30.4-30.98 29.91-30.98L29.91-30.98Q29.57-30.98 29.17-31.09 28.78-31.2 28.37-31.37 27.95-31.54 27.56-31.77 27.17-32.01 26.86-32.23L26.86-32.23Q25.98-32.59 25.21-32.78 24.44-32.96 23.73-33.04 23.02-33.13 22.34-33.14 21.66-33.15 20.97-33.15L20.97-33.15Q19.43-33.15 17.9-32.8 16.36-32.45 14.93-31.7 13.5-30.96 12.26-29.83 11.01-28.71 10.1-27.16 9.18-25.61 8.65-23.63 8.13-21.66 8.13-19.21L8.13-19.21Q8.13-15.16 9.29-12.37 10.45-9.57 12.32-7.84 14.18-6.1 16.53-5.33 18.87-4.57 21.26-4.57L21.26-4.57Q22.36-4.57 23.43-4.7 24.49-4.83 25.4-5.04 26.32-5.25 27.03-5.51 27.73-5.76 28.1-6.03L28.1-6.03Q28.83-6.67 29.39-6.99 29.96-7.32 30.69-7.32L30.69-7.32Q31.25-7.32 31.75-7.2 32.25-7.08 32.62-6.77 32.98-6.47 33.2-5.98 33.42-5.49 33.42-4.76L33.42-4.76Q33.42-3.74 32.73-2.89 32.03-2.05 30.49-1.32L30.49-1.32 30.49-1.34Q29.98-1.05 28.99-0.68 28-0.32 26.77-0.01 25.54 0.29 24.17 0.5 22.8 0.71 21.48 0.71L21.48 0.71Q18.48 0.71 15.93-0.01 13.38-0.73 11.29-2.01 9.2-3.3 7.59-5.08 5.98-6.86 4.88-8.98 3.78-11.11 3.22-13.51 2.66-15.92 2.66-18.46ZM37.35-1.88L37.35-1.88Q37.35-2.66 37.57-3.45 37.79-4.25 38.38-5.05L38.38-5.05Q38.79-5.76 39.51-7.2 40.23-8.64 41.14-10.6 42.04-12.55 43.08-14.86 44.11-17.16 45.19-19.57 46.26-21.97 47.32-24.38 48.39-26.78 49.34-28.89 50.29-31.01 51.07-32.71 51.85-34.42 52.39-35.47L52.39-35.47Q52.46-36.01 52.68-36.54 52.9-37.06 53.27-37.49 53.64-37.92 54.15-38.17 54.66-38.43 55.34-38.43L55.34-38.43Q56.22-38.43 56.77-38.18 57.32-37.94 57.68-37.51 58.03-37.08 58.25-36.52 58.47-35.96 58.69-35.33L58.69-35.33Q58.88-34.77 59.06-34.27 59.23-33.76 59.37-33.5L59.37-33.5Q61.01-30.22 62.56-26.9 64.11-23.58 65.63-20.15 67.16-16.72 68.72-13.21 70.29-9.69 71.97-6.05L71.97-6.05 72.43-5.37Q72.63-5.1 72.9-4.72 73.17-4.35 73.4-3.91 73.63-3.47 73.79-2.98 73.95-2.49 73.95-2L73.95-2Q73.95-0.54 73.12 0.09 72.29 0.71 71.09 0.71L71.09 0.71Q70.43 0.71 69.88 0.5 69.33 0.29 68.92-0.06 68.5-0.42 68.26-0.89 68.02-1.37 67.94-1.9L67.94-1.9Q67.26-3.39 66.67-4.7 66.09-6.01 65.54-7.23 64.99-8.45 64.48-9.61 63.96-10.77 63.45-11.94L63.45-11.94Q63.06-11.94 62.35-11.95 61.64-11.96 60.76-12.01L60.76-12.01Q59.37-12.01 57.94-12.04 56.52-12.06 55.03-12.07 53.54-12.08 51.95-12.07 50.36-12.06 48.63-11.99L48.63-11.99Q48.36-11.96 48.12-11.95 47.87-11.94 47.6-11.94L47.6-11.94Q46.92-10.28 46.31-8.78 45.7-7.28 45.21-6.01 44.72-4.74 44.35-3.75 43.97-2.76 43.77-2.15L43.77-2.15 43.77-2.17Q43.63-1.64 43.44-1.12 43.26-0.61 42.92-0.21 42.58 0.2 41.98 0.45 41.38 0.71 40.4 0.71L40.4 0.71Q39.08 0.71 38.22 0.05 37.35-0.61 37.35-1.88ZM49.83-17.26L49.83-17.26Q50.34-17.26 51.16-17.26 51.98-17.26 53.28-17.25 54.59-17.24 56.49-17.22 58.4-17.21 61.11-17.19L61.11-17.19Q59.98-19.63 58.57-22.69 57.15-25.76 55.22-29.83L55.22-29.83Q54.66-28.59 54.03-27.1 53.39-25.61 52.7-24 52-22.39 51.28-20.68 50.56-18.97 49.83-17.26ZM76.04-1.93L76.04-1.93Q76.04-2.37 76.17-2.69L76.17-2.69Q76.36-3.2 76.84-4.76 77.31-6.32 78.01-8.63 78.71-10.94 79.57-13.84 80.44-16.75 81.4-19.98 82.37-23.22 83.38-26.61 84.39-30 85.37-33.3L85.37-33.3 85.37-33.28Q85.54-33.96 85.75-34.66 85.96-35.35 86.16-35.94 86.37-36.52 86.58-36.95 86.79-37.38 86.93-37.52L86.93-37.52Q87.32-37.94 87.98-38.18 88.64-38.43 89.28-38.43L89.28-38.43Q90.13-38.43 90.69-38.12 91.25-37.82 91.66-37.22 92.06-36.62 92.37-35.74 92.67-34.86 93.01-33.74L93.01-33.74 99.14-14.28 99.48-13.26Q100.8-17.31 101.72-20.51 102.63-23.71 103.3-26.21 103.97-28.71 104.47-30.62 104.98-32.52 105.46-34.03L105.46-34.03Q105.71-34.79 105.95-35.57 106.2-36.35 106.57-36.99 106.95-37.62 107.55-38.02 108.15-38.43 109.15-38.43L109.15-38.43Q110-38.43 110.64-38.17 111.27-37.92 111.64-37.01L111.64-37.01Q111.81-36.6 111.98-36.16 112.15-35.72 112.41-35.05 112.67-34.38 113.03-33.35 113.4-32.32 113.94-30.74 114.47-29.15 115.2-26.9 115.94-24.66 116.95-21.52 117.96-18.38 119.27-14.25 120.58-10.11 122.24-4.79L122.24-4.79Q122.53-4 122.71-3.44 122.9-2.88 122.94-2.39L122.94-2.39Q122.99-1.76 122.88-1.2 122.77-0.63 122.48-0.21 122.19 0.22 121.67 0.46 121.16 0.71 120.41 0.71L120.41 0.71Q119.43 0.71 118.79 0.31 118.16-0.1 117.76-0.68 117.35-1.27 117.13-1.95 116.91-2.64 116.79-3.22L116.79-3.22Q116.33-4.93 115.74-7.02 115.16-9.11 114.5-11.4 113.84-13.7 113.13-16.08 112.42-18.46 111.73-20.74 111.03-23.02 110.36-25.07 109.69-27.12 109.1-28.78L109.1-28.78Q108.17-26.2 107.42-23.55 106.66-20.9 105.92-18.23 105.17-15.55 104.38-12.88 103.58-10.21 102.61-7.57L102.61-7.57Q102.41-7.08 102.33-6.49 102.24-5.91 102.24-5.52L102.24-5.52Q102.24-4.83 101.97-4.39 101.7-3.96 101.28-3.7 100.85-3.44 100.31-3.33 99.78-3.22 99.24-3.22L99.24-3.22Q98.33-3.22 97.79-3.48 97.24-3.74 96.91-4.17 96.58-4.61 96.42-5.16 96.26-5.71 96.16-6.3L96.16-6.3Q96.11-6.64 96.05-6.97 95.99-7.3 95.89-7.64L95.89-7.64Q95.48-9.11 94.98-10.88 94.48-12.65 93.92-14.56 93.35-16.48 92.76-18.44 92.16-20.41 91.56-22.28 90.96-24.15 90.39-25.83 89.81-27.51 89.33-28.86L89.33-28.86Q88.72-27.2 88.07-24.96 87.42-22.73 86.75-20.23 86.08-17.72 85.41-15.09 84.74-12.45 84.09-9.95 83.44-7.45 82.83-5.22 82.22-3 81.68-1.37L81.68-1.37Q81.12-0.42 80.57 0.15 80.02 0.71 78.95 0.71L78.95 0.71Q78.32 0.71 77.79 0.5 77.27 0.29 76.87-0.07 76.48-0.44 76.26-0.92 76.04-1.39 76.04-1.93ZM129.09-2.71L129.09-2.71Q129.09-3.42 129.3-4.11 129.51-4.81 129.51-5.59L129.51-5.59 129.14-34.74Q129.17-36.6 129.79-37.49 130.41-38.38 131.93-38.38L131.93-38.38Q132.76-38.38 133.32-38.23 133.88-38.09 134.22-37.72 134.56-37.35 134.7-36.77 134.83-36.18 134.83-35.3L134.83-35.3 134.83-31.64Q134.83-30.13 134.82-28.04 134.81-25.95 134.81-23.58 134.81-21.22 134.81-18.69 134.81-16.16 134.81-13.76 134.81-11.35 134.81-9.2 134.81-7.06 134.83-5.44L134.83-5.44Q137.69-5.44 139.65-5.46 141.62-5.47 142.89-5.52L142.89-5.52Q143.57-5.57 144.26-5.68 144.94-5.79 145.72-5.79L145.72-5.79Q147.33-5.79 148.17-5.05 149.02-4.32 149.02-2.91L149.02-2.91Q149.02-1.95 148.65-1.38 148.28-0.81 147.69-0.5 147.09-0.2 146.34-0.1 145.6 0 144.84 0L144.84 0 131.88 0Q131.27 0 130.75-0.11 130.24-0.22 129.88-0.51 129.51-0.81 129.3-1.33 129.09-1.86 129.09-2.71ZM155.92-2.76L155.92-2.76Q155.92-3.17 156.03-3.64 156.14-4.1 156.26-4.49L156.26-4.49 156.48-5.27 155.92-34.47Q155.92-35.67 156.2-36.33 156.48-36.99 156.92-37.3 157.36-37.62 157.94-37.67 158.51-37.72 159.1-37.72L159.1-37.72 171.96-37.72Q172.4-37.77 172.95-37.85 173.5-37.94 173.72-37.94L173.72-37.94Q174.65-37.94 175.22-37.77 175.8-37.6 176.13-37.27 176.45-36.94 176.56-36.45 176.67-35.96 176.67-35.3L176.67-35.3Q176.67-34.38 176.44-33.81 176.21-33.25 175.81-32.95 175.41-32.64 174.87-32.54 174.33-32.45 173.72-32.45L173.72-32.45Q173.45-32.45 173.01-32.46 172.57-32.47 172.08-32.52L172.08-32.52Q169.72-32.52 168.26-32.52 166.81-32.52 165.94-32.51 165.08-32.5 164.63-32.5 164.17-32.5 163.83-32.5L163.83-32.5 161.56-32.5 161.56-24.76Q161.71-24.76 161.92-24.74 162.12-24.73 162.56-24.73 163-24.73 163.77-24.73 164.54-24.73 165.83-24.73 167.13-24.73 169.03-24.73 170.94-24.73 173.65-24.73L173.65-24.73Q173.92-24.73 174.26-24.76 174.6-24.78 174.94-24.83L174.94-24.83Q175.38-24.88 175.97-24.93 176.55-24.98 177.24-24.98L177.24-24.98Q177.9-24.98 178.41-24.71 178.92-24.44 179.27-24.04 179.63-23.63 179.81-23.17 179.99-22.71 179.99-22.29L179.99-22.29Q179.99-20.97 179.13-20.36 178.26-19.75 176.89-19.75L176.89-19.75 161.56-19.73 161.56-5.1Q163.98-5.1 166.42-5.03 168.86-4.96 171.52-4.96L171.52-4.96Q172.26-4.96 172.87-5.03 173.48-5.1 174.04-5.2L174.04-5.2Q174.55-5.27 175.08-5.33 175.6-5.4 176.24-5.4L176.24-5.4Q176.97-5.4 177.59-5.29 178.21-5.18 178.68-4.9 179.14-4.61 179.41-4.14 179.68-3.66 179.68-2.93L179.68-2.93Q179.68-1.86 179.31-1.27 178.95-0.68 178.32-0.4 177.7-0.12 176.91-0.06 176.11 0 175.26 0L175.26 0 158.83 0Q158.19 0 157.67-0.15 157.14-0.29 156.75-0.62 156.36-0.95 156.14-1.48 155.92-2 155.92-2.76ZM188.29-1.56L188.29-1.56Q188.29-2.59 188.44-3.3 188.59-4 188.61-3.96L188.61-3.96Q188.66-6.62 188.7-9.35 188.73-12.08 188.73-15.14L188.73-15.14Q188.73-17.07 188.73-19.32 188.73-21.58 188.7-23.89 188.66-26.2 188.59-28.43 188.51-30.66 188.39-32.57L188.39-32.57Q188.29-33.13 188.24-33.58 188.2-34.03 188.2-34.55L188.2-34.55Q188.2-35.74 188.71-36.44 189.22-37.13 190.37-37.4L190.37-37.4Q190.86-37.82 191.45-37.98 192.05-38.13 192.61-38.13L192.61-38.13Q193.2-38.13 193.68-37.79 194.15-37.45 194.52-36.99 194.88-36.52 195.13-36.02 195.37-35.52 195.47-35.21L195.47-35.21Q196.23-34.08 197.29-32.64 198.35-31.2 199.61-29.55 200.87-27.91 202.28-26.11 203.7-24.32 205.15-22.49 206.6-20.65 208.04-18.84 209.48-17.02 210.78-15.33 212.07-13.65 213.2-12.15 214.32-10.64 215.12-9.45L215.12-9.45Q215.12-14.67 215.09-18.44 215.05-22.22 215-24.87 214.95-27.51 214.88-29.22 214.81-30.93 214.76-32.06 214.71-33.18 214.67-33.9 214.64-34.62 214.64-35.28L214.64-35.28Q214.64-36.25 214.84-36.88 215.05-37.5 215.43-37.84 215.81-38.18 216.37-38.31 216.93-38.43 217.66-38.43L217.66-38.43Q218.62-38.43 219.15-38.04 219.69-37.65 219.97-37.05 220.25-36.45 220.31-35.71 220.37-34.96 220.37-34.25L220.37-34.25 220.37-6.25Q220.37-5.37 220.47-4.48 220.57-3.59 220.57-2.59L220.57-2.59Q220.57-1.64 220.42-1.01 220.28-0.39 219.95 0 219.62 0.39 219.09 0.55 218.57 0.71 217.83 0.71L217.83 0.71Q216.47 0.71 215.65 0.02 214.83-0.66 214.49-1.64L214.49-1.64Q212.17-4.81 209.79-7.9 207.41-10.99 204.99-14.07 202.58-17.16 200.13-20.3 197.69-23.44 195.28-26.68L195.28-26.68 193.81-28.98Q193.84-25.24 193.86-22.33 193.88-19.41 193.91-17.13 193.93-14.84 193.96-13.1 193.98-11.35 193.99-9.97 194.01-8.59 194.02-7.46 194.03-6.32 194.03-5.25L194.03-5.25Q194.05-4.61 194.12-3.89 194.18-3.17 194.18-2.49L194.18-2.49Q194.18-1.86 194.07-1.27 193.96-0.68 193.64-0.24 193.32 0.2 192.75 0.45 192.18 0.71 191.25 0.71L191.25 0.71Q190 0.71 189.15 0.1 188.29-0.51 188.29-1.56ZM248.81-17.94L248.81-17.94Q248.79-21.83 248.82-25.74 248.86-29.66 248.86-33.96L248.86-33.96Q248.86-34.99 248.97-35.82 249.08-36.65 249.37-37.23 249.67-37.82 250.17-38.12 250.67-38.43 251.45-38.43L251.45-38.43Q253.23-38.43 253.96-37.39 254.69-36.35 254.69-34.57L254.69-34.57Q254.69-34.06 254.67-33.47 254.65-32.89 254.62-32.08 254.6-31.27 254.56-30.13 254.52-28.98 254.5-27.37 254.47-25.76 254.45-23.56 254.43-21.36 254.43-18.43L254.43-18.43Q254.43-16.67 254.54-14.95 254.65-13.23 254.98-11.68 255.3-10.13 255.92-8.81 256.53-7.5 257.49-6.53 258.45-5.57 259.86-5.03 261.26-4.49 263.19-4.49L263.19-4.49Q265.41-4.49 266.95-5.4 268.49-6.3 269.45-8.03 270.42-9.77 270.84-12.32 271.27-14.87 271.27-18.16L271.27-18.16Q271.27-24.1 271.17-28.2 271.08-32.3 271.03-34.13L271.03-34.13Q271-34.5 271-34.89 271-35.28 271-35.35L271-35.35Q271-37.08 271.77-37.76 272.54-38.43 273.84-38.43L273.84-38.43Q274.67-38.43 275.24-38.18 275.81-37.94 276.15-37.55 276.5-37.16 276.64-36.67 276.79-36.18 276.79-35.72L276.79-35.72Q276.79-34.91 276.73-34.07 276.67-33.23 276.67-32.32L276.67-32.32Q276.67-30.37 276.69-28.71 276.72-27.05 276.76-25.54L276.76-25.54Q276.76-23.78 276.81-21.98 276.86-20.19 276.86-18.12L276.86-18.12Q276.86-13.65 276.02-10.14 275.18-6.64 273.44-4.22 271.71-1.81 269.09-0.54 266.46 0.73 262.92 0.73L262.92 0.73Q261.14 0.73 259.41 0.4 257.67 0.07 256.11-0.73 254.55-1.54 253.22-2.91 251.89-4.27 250.91-6.35 249.93-8.42 249.37-11.28 248.81-14.14 248.81-17.94ZM286.43-1.56L286.43-1.56Q286.43-2.59 286.58-3.3 286.72-4 286.75-3.96L286.75-3.96Q286.8-6.62 286.83-9.35 286.87-12.08 286.87-15.14L286.87-15.14Q286.87-17.07 286.87-19.32 286.87-21.58 286.83-23.89 286.8-26.2 286.72-28.43 286.65-30.66 286.53-32.57L286.53-32.57Q286.43-33.13 286.38-33.58 286.33-34.03 286.33-34.55L286.33-34.55Q286.33-35.74 286.85-36.44 287.36-37.13 288.51-37.4L288.51-37.4Q288.99-37.82 289.59-37.98 290.19-38.13 290.75-38.13L290.75-38.13Q291.34-38.13 291.81-37.79 292.29-37.45 292.66-36.99 293.02-36.52 293.27-36.02 293.51-35.52 293.61-35.21L293.61-35.21Q294.36-34.08 295.43-32.64 296.49-31.2 297.75-29.55 299-27.91 300.42-26.11 301.84-24.32 303.29-22.49 304.74-20.65 306.18-18.84 307.62-17.02 308.92-15.33 310.21-13.65 311.33-12.15 312.46-10.64 313.26-9.45L313.26-9.45Q313.26-14.67 313.22-18.44 313.19-22.22 313.14-24.87 313.09-27.51 313.02-29.22 312.94-30.93 312.9-32.06 312.85-33.18 312.81-33.9 312.77-34.62 312.77-35.28L312.77-35.28Q312.77-36.25 312.98-36.88 313.19-37.5 313.57-37.84 313.94-38.18 314.51-38.31 315.07-38.43 315.8-38.43L315.8-38.43Q316.75-38.43 317.29-38.04 317.83-37.65 318.11-37.05 318.39-36.45 318.45-35.71 318.51-34.96 318.51-34.25L318.51-34.25 318.51-6.25Q318.51-5.37 318.61-4.48 318.71-3.59 318.71-2.59L318.71-2.59Q318.71-1.64 318.56-1.01 318.41-0.39 318.08 0 317.75 0.39 317.23 0.55 316.7 0.71 315.97 0.71L315.97 0.71Q314.6 0.71 313.79 0.02 312.97-0.66 312.63-1.64L312.63-1.64Q310.31-4.81 307.93-7.9 305.55-10.99 303.13-14.07 300.71-17.16 298.27-20.3 295.83-23.44 293.41-26.68L293.41-26.68 291.95-28.98Q291.97-25.24 292-22.33 292.02-19.41 292.05-17.13 292.07-14.84 292.09-13.1 292.12-11.35 292.13-9.97 292.14-8.59 292.16-7.46 292.17-6.32 292.17-5.25L292.17-5.25Q292.19-4.61 292.25-3.89 292.31-3.17 292.31-2.49L292.31-2.49Q292.31-1.86 292.2-1.27 292.09-0.68 291.78-0.24 291.46 0.2 290.89 0.45 290.31 0.71 289.38 0.71L289.38 0.71Q288.14 0.71 287.28 0.1 286.43-0.51 286.43-1.56ZM330.23-1.95L330.23-1.95Q330.23-3.2 330.41-4.41 330.59-5.62 330.59-6.98L330.59-6.98Q330.59-13.21 330.48-19.51 330.37-25.81 330.37-32.45L330.37-32.45Q330.37-33.13 330.23-33.83 330.08-34.52 330.08-35.33L330.08-35.33Q330.08-35.96 330.25-36.52 330.42-37.08 330.84-37.51 331.25-37.94 331.98-38.18 332.72-38.43 333.82-38.43L333.82-38.43Q334.91-38.43 335.55-37.6 336.18-36.77 336.18-35.38L336.18-35.38Q336.18-34.96 336.11-34.56 336.04-34.16 335.96-33.72L335.96-33.72Q335.92-31.62 335.89-29.2 335.87-26.78 335.87-23.66L335.87-23.66Q335.87-20.87 335.89-17.97 335.92-15.06 335.96-12.38 336.01-9.69 336.1-7.36 336.18-5.03 336.31-3.34L336.31-3.34 336.31-3.37Q336.35-3 336.39-2.67 336.43-2.34 336.43-2L336.43-2Q336.43-1.42 336.29-0.92 336.16-0.42 335.84-0.05 335.52 0.32 334.96 0.51 334.4 0.71 333.57 0.71L333.57 0.71Q332.59 0.71 331.95 0.54 331.3 0.37 330.92 0.02 330.54-0.32 330.39-0.82 330.23-1.32 330.23-1.95ZM356.54-1.76L356.54-1.76Q355.64-4.27 354.59-7.08 353.54-9.89 352.44-12.72 351.34-15.55 350.28-18.25 349.22-20.95 348.31-23.22L348.31-23.22Q347.46-25.34 346.69-27.28 345.92-29.22 345.32-30.81 344.73-32.4 344.31-33.54 343.9-34.69 343.77-35.25L343.77-35.25Q343.6-35.91 343.76-36.47 343.92-37.04 344.3-37.46 344.68-37.89 345.23-38.12 345.78-38.35 346.43-38.35L346.43-38.35Q348.19-38.35 348.88-36.79L348.88-36.79Q349.22-35.94 349.89-34.25 350.56-32.57 351.43-30.32 352.29-28.08 353.32-25.43 354.35-22.78 355.41-20.02 356.47-17.26 357.49-14.51 358.52-11.77 359.42-9.35L359.42-9.35Q360.38-11.84 361.34-14.39 362.3-16.94 363.23-19.41 364.16-21.88 365.01-24.17 365.87-26.46 366.59-28.45 367.31-30.44 367.89-32.06 368.48-33.67 368.85-34.77L368.85-34.77Q368.87-35.3 369.09-35.94 369.31-36.57 369.71-37.12 370.12-37.67 370.7-38.05 371.29-38.43 372.07-38.43L372.07-38.43Q372.63-38.43 373.17-38.21 373.71-37.99 374.12-37.61 374.54-37.23 374.79-36.69 375.05-36.16 375.05-35.55L375.05-35.55Q375.05-35.03 374.9-34.52 374.76-34.01 374.55-33.53 374.34-33.06 374.11-32.65 373.88-32.25 373.71-31.98L373.71-31.98 373.68-31.93Q372.53-29.3 371.58-26.98 370.63-24.66 369.77-22.49 368.92-20.31 368.15-18.25 367.38-16.19 366.6-14.06L366.6-14.06Q365.7-11.6 364.59-8.68 363.48-5.76 362.21-2.51L362.21-2.51Q362.26-2.32 362.28-2.1 362.3-1.88 362.3-1.68L362.3-1.68Q362.3-0.93 362.05-0.46 361.79 0 361.36 0.27 360.94 0.54 360.38 0.63 359.81 0.73 359.23 0.73L359.23 0.73Q358.52 0.73 358.07 0.51 357.62 0.29 357.32-0.07 357.03-0.44 356.86-0.88 356.69-1.32 356.54-1.76ZM380.59-2.76L380.59-2.76Q380.59-3.17 380.7-3.64 380.81-4.1 380.93-4.49L380.93-4.49 381.15-5.27 380.59-34.47Q380.59-35.67 380.87-36.33 381.15-36.99 381.59-37.3 382.03-37.62 382.6-37.67 383.18-37.72 383.76-37.72L383.76-37.72 396.63-37.72Q397.07-37.77 397.62-37.85 398.17-37.94 398.39-37.94L398.39-37.94Q399.31-37.94 399.89-37.77 400.46-37.6 400.79-37.27 401.12-36.94 401.23-36.45 401.34-35.96 401.34-35.3L401.34-35.3Q401.34-34.38 401.11-33.81 400.88-33.25 400.47-32.95 400.07-32.64 399.53-32.54 399-32.45 398.39-32.45L398.39-32.45Q398.12-32.45 397.68-32.46 397.24-32.47 396.75-32.52L396.75-32.52Q394.38-32.52 392.93-32.52 391.48-32.52 390.61-32.51 389.74-32.5 389.29-32.5 388.84-32.5 388.5-32.5L388.5-32.5 386.23-32.5 386.23-24.76Q386.37-24.76 386.58-24.74 386.79-24.73 387.23-24.73 387.67-24.73 388.44-24.73 389.21-24.73 390.5-24.73 391.79-24.73 393.7-24.73 395.6-24.73 398.31-24.73L398.31-24.73Q398.58-24.73 398.92-24.76 399.26-24.78 399.61-24.83L399.61-24.83Q400.05-24.88 400.63-24.93 401.22-24.98 401.9-24.98L401.9-24.98Q402.56-24.98 403.07-24.71 403.59-24.44 403.94-24.04 404.29-23.63 404.48-23.17 404.66-22.71 404.66-22.29L404.66-22.29Q404.66-20.97 403.79-20.36 402.93-19.75 401.56-19.75L401.56-19.75 386.23-19.73 386.23-5.1Q388.64-5.1 391.09-5.03 393.53-4.96 396.19-4.96L396.19-4.96Q396.92-4.96 397.53-5.03 398.14-5.1 398.7-5.2L398.7-5.2Q399.22-5.27 399.74-5.33 400.27-5.4 400.9-5.4L400.9-5.4Q401.63-5.4 402.26-5.29 402.88-5.18 403.34-4.9 403.81-4.61 404.07-4.14 404.34-3.66 404.34-2.93L404.34-2.93Q404.34-1.86 403.98-1.27 403.61-0.68 402.99-0.4 402.37-0.12 401.57-0.06 400.78 0 399.92 0L399.92 0 383.49 0Q382.86 0 382.33-0.15 381.81-0.29 381.42-0.62 381.03-0.95 380.81-1.48 380.59-2 380.59-2.76ZM413.01-2.71L413.01-2.71Q413.01-3.25 413.06-3.76 413.1-4.27 413.15-4.71L413.15-4.71Q413.15-8.11 413.15-10.96 413.15-13.82 413.15-16.3 413.15-18.77 413.15-20.95 413.15-23.12 413.15-25.16 413.15-27.2 413.17-29.16 413.18-31.13 413.18-33.18L413.18-33.18Q413.06-33.52 412.95-34.13 412.84-34.74 412.84-35.28L412.84-35.28Q412.84-35.79 412.99-36.3 413.15-36.82 413.48-37.22 413.81-37.62 414.3-37.87 414.79-38.11 415.42-38.11L415.42-38.11Q416.45-38.11 417.5-37.99 418.55-37.87 419.87-37.87L419.87-37.87Q420.97-37.87 422.06-37.98 423.16-38.09 424.41-38.11L424.41-38.11Q428.1-38.11 431.09-37.38 434.08-36.65 436.19-35.11 438.3-33.57 439.45-31.19 440.6-28.81 440.6-25.51L440.6-25.51Q440.6-22.39 439.73-19.96 438.86-17.53 437.51-15.72 436.15-13.92 434.48-12.71 432.81-11.5 431.22-10.86L431.22-10.86Q431.44-9.55 431.92-8.39 432.39-7.23 433.14-6.35 433.88-5.47 434.88-4.96 435.88-4.44 437.13-4.44L437.13-4.44Q438.06-4.44 438.82-4.74 439.59-5.03 440.16-5.88L440.16-5.88Q440.5-6.37 440.99-6.75 441.47-7.13 442.23-7.13L442.23-7.13Q443.55-7.13 444.28-6.4 445.01-5.66 445.01-4.54L445.01-4.54Q445.01-3.49 444.42-2.54 443.82-1.59 442.73-0.87 441.64-0.15 440.11 0.28 438.57 0.71 436.69 0.71L436.69 0.71Q434.96 0.71 433.55 0.21 432.15-0.29 431.04-1.14 429.93-1.98 429.07-3.06 428.22-4.15 427.61-5.33 427-6.52 426.61-7.69 426.22-8.86 426-9.89L426-9.89Q425.7-9.89 425.21-9.89 424.73-9.89 424.21-9.89 423.7-9.89 423.2-9.9 422.7-9.91 422.38-9.91L422.38-9.91Q421.67-9.94 420.64-9.95 419.6-9.96 418.74-9.96L418.74-9.96 418.74-6.4Q418.79-5.25 419.04-4.16 419.28-3.08 419.28-1.93L419.28-1.93Q419.28-1.22 419-0.73 418.72-0.24 418.28 0.09 417.84 0.42 417.33 0.56 416.82 0.71 416.35 0.71L416.35 0.71Q415.62 0.71 415.01 0.45 414.4 0.2 413.96-0.26 413.52-0.71 413.26-1.33 413.01-1.95 413.01-2.71ZM418.72-15.21L418.72-15.21Q419.35-15.19 420.21-15.16 421.06-15.14 421.85-15.11 422.63-15.09 423.24-15.08 423.85-15.06 424.02-15.06L424.02-15.06Q427.31-15.06 429.43-15.97 431.54-16.87 432.73-18.36 433.93-19.85 434.38-21.78 434.83-23.71 434.83-25.73L434.83-25.73Q434.83-27.51 434.27-28.75 433.71-29.98 432.78-30.79 431.85-31.59 430.68-32.06 429.51-32.52 428.3-32.74 427.09-32.96 425.93-33.01 424.77-33.06 423.9-33.06L423.9-33.06Q422.65-33.06 421.37-33.02 420.09-32.98 418.6-32.96L418.6-32.96Q418.55-32.03 418.54-31.27 418.52-30.52 418.51-29.8 418.5-29.08 418.5-28.33 418.5-27.59 418.5-26.66L418.5-26.66Q418.5-25 418.51-23.57 418.52-22.14 418.55-20.79 418.57-19.43 418.61-18.07 418.65-16.7 418.72-15.21ZM430.15-10.5L430.17-10.52Q430.15-10.52 430.15-10.5L430.15-10.5ZM430.15-10.5L430.12-10.5 430.15-10.5ZM450.14-8.76L450.14-8.76Q450.26-10.74 450.96-11.78 451.65-12.82 453.41-12.82L453.41-12.82Q454.51-12.82 455.29-12.19 456.07-11.57 456.07-10.47L456.07-10.47Q456.07-9.84 455.95-9.2 455.83-8.57 455.88-7.89L455.88-7.89Q455.97-7.06 456.61-6.37 457.24-5.69 458.22-5.19 459.2-4.69 460.44-4.41 461.69-4.13 462.98-4.13L462.98-4.13Q464.3-4.13 465.6-4.36 466.91-4.59 467.97-5.22 469.03-5.86 469.69-6.96 470.35-8.06 470.35-9.81L470.35-9.81Q470.35-10.96 469.79-11.98 469.23-12.99 468.35-13.83 467.47-14.67 466.41-15.36 465.35-16.04 464.37-16.55L464.37-16.55Q462.98-17.26 461.53-17.93 460.07-18.6 458.7-19.35 457.32-20.09 456.08-20.98 454.85-21.88 453.92-23.07 452.99-24.27 452.46-25.84 451.92-27.42 451.92-29.49L451.92-29.49Q451.92-31.81 452.91-33.5 453.9-35.18 455.51-36.28 457.12-37.38 459.21-37.9 461.3-38.43 463.49-38.43L463.49-38.43Q465.45-38.43 467.28-38.09 469.11-37.74 470.55-36.98 471.99-36.21 472.94-34.92 473.89-33.64 474.09-31.79L474.09-31.79Q474.14-31.1 473.92-30.58 473.7-30.05 473.31-29.7 472.92-29.35 472.42-29.16 471.92-28.98 471.4-28.98L471.4-28.98Q470.62-28.98 470.08-29.22 469.55-29.47 469.21-29.83 468.86-30.2 468.69-30.66 468.52-31.13 468.47-31.57L468.47-31.57Q468.11-32.15 467.52-32.53 466.94-32.91 466.22-33.14 465.49-33.37 464.71-33.46 463.93-33.54 463.2-33.54L463.2-33.54Q462.17-33.54 461.16-33.33 460.15-33.11 459.32-32.62 458.49-32.13 457.98-31.37 457.46-30.62 457.46-29.52L457.46-29.52Q457.46-28.22 458.07-27.22 458.68-26.22 459.61-25.44 460.54-24.66 461.67-24.02 462.81-23.39 463.88-22.85L463.88-22.85Q465.18-22.19 466.57-21.45 467.96-20.7 469.29-19.84 470.62-18.97 471.82-17.94 473.01-16.92 473.92-15.66 474.82-14.4 475.35-12.92 475.87-11.43 475.87-9.62L475.87-9.62Q475.87-7.69 475.33-6.18 474.8-4.66 473.87-3.52 472.94-2.37 471.7-1.56 470.45-0.76 469.01-0.24 467.57 0.27 466.02 0.5 464.47 0.73 462.93 0.73L462.93 0.73Q461.64 0.73 460.16 0.51 458.68 0.29 457.24-0.18 455.8-0.66 454.5-1.4 453.19-2.15 452.2-3.21 451.21-4.27 450.65-5.65 450.09-7.03 450.14-8.76ZM486.1-1.95L486.1-1.95Q486.1-3.2 486.28-4.41 486.46-5.62 486.46-6.98L486.46-6.98Q486.46-13.21 486.35-19.51 486.24-25.81 486.24-32.45L486.24-32.45Q486.24-33.13 486.1-33.83 485.95-34.52 485.95-35.33L485.95-35.33Q485.95-35.96 486.12-36.52 486.29-37.08 486.71-37.51 487.12-37.94 487.86-38.18 488.59-38.43 489.69-38.43L489.69-38.43Q490.79-38.43 491.42-37.6 492.05-36.77 492.05-35.38L492.05-35.38Q492.05-34.96 491.98-34.56 491.91-34.16 491.84-33.72L491.84-33.72Q491.79-31.62 491.76-29.2 491.74-26.78 491.74-23.66L491.74-23.66Q491.74-20.87 491.76-17.97 491.79-15.06 491.84-12.38 491.88-9.69 491.97-7.36 492.05-5.03 492.18-3.34L492.18-3.34 492.18-3.37Q492.23-3 492.26-2.67 492.3-2.34 492.3-2L492.3-2Q492.3-1.42 492.16-0.92 492.03-0.42 491.71-0.05 491.4 0.32 490.83 0.51 490.27 0.71 489.44 0.71L489.44 0.71Q488.47 0.71 487.82 0.54 487.17 0.37 486.79 0.02 486.42-0.32 486.26-0.82 486.1-1.32 486.1-1.95ZM509.63-3.27L509.68-32.23Q507.97-32.23 506.14-32.2 504.31-32.18 502.14-32.18L502.14-32.18Q501.55-32.18 501.11-32.45 500.67-32.71 500.38-33.14 500.08-33.57 499.94-34.11 499.79-34.64 499.79-35.18L499.79-35.18Q499.79-36.62 500.6-37.17 501.4-37.72 503.21-37.72L503.21-37.72 522.69-37.72Q523.18-37.72 523.71-37.6 524.23-37.48 524.66-37.16 525.08-36.84 525.37-36.33 525.65-35.82 525.65-35.01L525.65-35.01Q525.65-34.42 525.45-33.89 525.26-33.35 524.93-32.96 524.6-32.57 524.14-32.32 523.69-32.08 523.18-32.08L523.18-32.08Q522.79-32.08 522.42-32.15 522.06-32.23 521.64-32.23L521.64-32.23 515.34-32.23 515.27-4.69Q515.27-4.1 515.36-3.54 515.44-2.98 515.44-2.32L515.44-2.32Q515.44-1.78 515.34-1.25 515.25-0.71 514.93-0.27 514.61 0.17 514.03 0.45 513.44 0.73 512.49 0.73L512.49 0.73Q511.36 0.73 510.78 0.35 510.19-0.02 509.94-0.61 509.68-1.2 509.65-1.9 509.63-2.61 509.63-3.27L509.63-3.27ZM538.8-1.68L538.8-1.68Q538.8-2.56 538.83-3.26 538.85-3.96 538.89-4.7 538.92-5.44 538.96-6.35 539-7.25 539.01-8.57 539.02-9.89 539.01-11.74 539-13.6 538.95-16.24L538.95-16.24Q537.17-19.24 535.7-21.62 534.24-24 532.99-25.95 531.75-27.91 530.66-29.53 529.57-31.15 528.55-32.62L528.55-32.62Q527.91-33.54 527.5-34.28 527.08-35.01 527.08-35.6L527.08-35.6Q527.08-36.99 527.93-37.7 528.77-38.4 530.14-38.4L530.14-38.4Q530.67-38.4 531.12-38.09 531.58-37.77 531.95-37.27 532.33-36.77 532.65-36.15 532.97-35.52 533.21-34.91L533.21-34.91Q534.02-33.3 534.95-31.79 535.87-30.27 536.86-28.8 537.85-27.32 538.88-25.82 539.9-24.32 540.88-22.75L540.88-22.75 541.66-21.46 542.42-22.75Q545.15-26.98 547.14-30.18 549.13-33.37 550.11-35.25L550.11-35.25 550.08-35.25Q550.33-35.89 550.59-36.46 550.86-37.04 551.21-37.46 551.55-37.89 551.99-38.15 552.43-38.4 553.04-38.4L553.04-38.4Q553.57-38.4 554.11-38.29 554.65-38.18 555.07-37.87 555.5-37.55 555.77-37 556.04-36.45 556.04-35.57L556.04-35.57Q556.04-35.13 555.79-34.36 555.55-33.59 554.67-32.76L554.67-32.76Q553.18-30.44 551.69-28.14 550.2-25.83 548.85-23.69 547.49-21.56 546.32-19.64 545.15-17.72 544.32-16.19L544.32-16.19Q544.17-14.77 544.19-13.04 544.2-11.3 544.28-9.41 544.37-7.52 544.47-5.57 544.56-3.61 544.56-1.78L544.56-1.78Q544.56-1.29 544.43-0.83 544.3-0.37 543.98-0.02 543.66 0.32 543.1 0.52 542.54 0.73 541.71 0.73L541.71 0.73Q541.05 0.73 540.52 0.54 540 0.34 539.61 0.01 539.22-0.32 539.01-0.76 538.8-1.2 538.8-1.68Z" opacity="1" transform="matrix(1,0,0,1,0,0)" fill="white" class="wordmark-text-0" id="SvgjsPath1515"></path></svg></g></svg></g><g transform="matrix(1,0,0,1,0,34.59431879080995)"><svg viewBox="0 0 134.88989267481207 12.874116675489677" height="12.874116675489677" width="134.88989267481207"><g transform="matrix(1,0,0,1,8,0)"><svg width="118.88989267481207" viewBox="1.8451389444500002 -37 346.26486105555 37.5" height="12.874116675489677" data-palette-color="url(#f56f30c5-bfcb-47ea-b5b5-daa50bd6b8bb)"><path d="M2.25-4.1L2.25-4.1Q1.8-4.75 1.85-5.48 1.9-6.2 2.7-6.75L2.7-6.75Q3.2-7.1 3.88-7.05 4.55-7 5.1-6.4L5.1-6.4Q6.5-4.75 8.3-3.78 10.1-2.8 12.7-2.8L12.7-2.8Q13.9-2.85 15.1-3.2 16.3-3.55 17.13-4.42 17.95-5.3 17.95-6.75L17.95-6.75Q17.95-8.15 17.1-8.97 16.25-9.8 14.9-10.33 13.55-10.85 11.95-11.25L11.95-11.25Q10.3-11.7 8.7-12.28 7.1-12.85 5.83-13.73 4.55-14.6 3.78-15.93 3-17.25 3-19.15L3-19.15Q3-21.4 4.23-23.05 5.45-24.7 7.53-25.6 9.6-26.5 12.05-26.5L12.05-26.5Q13.45-26.5 14.98-26.18 16.5-25.85 17.95-25.08 19.4-24.3 20.5-22.95L20.5-22.95Q20.95-22.45 21-21.7 21.05-20.95 20.35-20.35L20.35-20.35Q19.8-19.95 19.13-20 18.45-20.05 18-20.5L18-20.5Q16.95-21.75 15.38-22.43 13.8-23.1 11.9-23.1L11.9-23.1Q10.7-23.1 9.55-22.75 8.4-22.4 7.63-21.58 6.85-20.75 6.85-19.3L6.85-19.3Q6.9-17.95 7.75-17.1 8.6-16.25 10.05-15.73 11.5-15.2 13.25-14.7L13.25-14.7Q14.85-14.3 16.32-13.78 17.8-13.25 19-12.4 20.2-11.55 20.9-10.23 21.6-8.9 21.6-6.9L21.6-6.9Q21.6-4.6 20.3-2.93 19-1.25 16.88-0.38 14.75 0.5 12.3 0.5L12.3 0.5Q9.55 0.5 6.88-0.55 4.2-1.6 2.25-4.1ZM39.9-26.25L39.9-26.25Q43.2-26.25 45.12-24.83 47.05-23.4 47.87-21.03 48.7-18.65 48.7-15.75L48.7-15.75 48.7-2.05Q48.7-1.2 48.12-0.6 47.55 0 46.7 0L46.7 0Q45.85 0 45.27-0.6 44.7-1.2 44.7-2.05L44.7-2.05 44.7-15.75Q44.7-17.65 44.15-19.18 43.6-20.7 42.32-21.63 41.05-22.55 38.85-22.55L38.85-22.55Q36.8-22.55 35.1-21.63 33.4-20.7 32.4-19.18 31.4-17.65 31.4-15.75L31.4-15.75 31.4-2.05Q31.4-1.2 30.82-0.6 30.25 0 29.4 0L29.4 0Q28.55 0 27.97-0.6 27.4-1.2 27.4-2.05L27.4-2.05 27.4-35Q27.4-35.85 27.97-36.43 28.55-37 29.4-37L29.4-37Q30.3-37 30.85-36.43 31.4-35.85 31.4-35L31.4-35 31.4-20.05 30.4-18.95Q30.65-20.25 31.5-21.58 32.35-22.9 33.65-23.95 34.95-25 36.55-25.63 38.15-26.25 39.9-26.25ZM59.95-24.25L59.95-2.05Q59.95-1.2 59.37-0.6 58.8 0 57.95 0L57.95 0Q57.05 0 56.5-0.6 55.95-1.2 55.95-2.05L55.95-2.05 55.95-24.25Q55.95-25.1 56.52-25.68 57.1-26.25 57.95-26.25L57.95-26.25Q58.8-26.25 59.37-25.68 59.95-25.1 59.95-24.25L59.95-24.25ZM57.95-29.6L57.95-29.6Q56.7-29.6 56.1-30.1 55.5-30.6 55.5-31.65L55.5-31.65 55.5-32.35Q55.5-33.4 56.15-33.9 56.8-34.4 58-34.4L58-34.4Q59.2-34.4 59.8-33.9 60.4-33.4 60.4-32.35L60.4-32.35 60.4-31.65Q60.4-30.6 59.77-30.1 59.15-29.6 57.95-29.6ZM79.99-26.5L79.99-26.5Q83.39-26.5 85.34-25.1 87.29-23.7 88.12-21.35 88.94-19 88.94-16.1L88.94-16.1 88.94-2.05Q88.94-1.2 88.37-0.6 87.79 0 86.94 0L86.94 0Q86.09 0 85.52-0.6 84.94-1.2 84.94-2.05L84.94-2.05 84.94-16Q84.94-17.9 84.37-19.43 83.79-20.95 82.47-21.88 81.14-22.8 78.84-22.8L78.84-22.8Q76.74-22.8 74.99-21.88 73.24-20.95 72.19-19.43 71.14-17.9 71.14-16L71.14-16 71.14-2.05Q71.14-1.2 70.57-0.6 69.99 0 69.14 0L69.14 0Q68.29 0 67.72-0.6 67.14-1.2 67.14-2.05L67.14-2.05 67.14-23.85Q67.14-24.7 67.72-25.28 68.29-25.85 69.14-25.85L69.14-25.85Q70.04-25.85 70.59-25.28 71.14-24.7 71.14-23.85L71.14-23.85 71.14-20.3 70.14-19.2Q70.39-20.5 71.29-21.83 72.19-23.15 73.54-24.2 74.89-25.25 76.54-25.88 78.19-26.5 79.99-26.5ZM108.04 0.5L108.04 0.5Q104.04 0.5 101.04-1.2 98.04-2.9 96.39-5.88 94.74-8.85 94.74-12.75L94.74-12.75Q94.74-17.1 96.47-20.18 98.19-23.25 100.94-24.88 103.69-26.5 106.79-26.5L106.79-26.5Q109.14-26.5 111.27-25.65 113.39-24.8 115.07-23.18 116.74-21.55 117.74-19.28 118.74-17 118.79-14.2L118.79-14.2Q118.74-13.4 118.14-12.85 117.54-12.3 116.74-12.3L116.74-12.3 96.99-12.3 96.09-15.75 115.34-15.75 114.54-15.05 114.54-16.15Q114.39-18.2 113.22-19.68 112.04-21.15 110.34-21.95 108.64-22.75 106.79-22.75L106.79-22.75Q105.29-22.75 103.82-22.23 102.34-21.7 101.17-20.53 99.99-19.35 99.29-17.5 98.59-15.65 98.59-13.05L98.59-13.05Q98.59-10.15 99.77-7.95 100.94-5.75 103.04-4.48 105.14-3.2 107.89-3.2L107.89-3.2Q109.69-3.2 110.99-3.65 112.29-4.1 113.22-4.78 114.14-5.45 114.79-6.15L114.79-6.15Q115.44-6.6 116.09-6.6L116.09-6.6Q116.79-6.6 117.29-6.1 117.79-5.6 117.79-4.9L117.79-4.9Q117.79-4.05 116.99-3.4L116.99-3.4Q115.54-1.85 113.17-0.68 110.79 0.5 108.04 0.5ZM142.69-35L142.69-2.05Q142.69-1.2 142.09-0.6 141.49 0 140.64 0L140.64 0Q139.79 0 139.24-0.6 138.69-1.2 138.69-2.05L138.69-2.05 138.69-35Q138.69-35.85 139.26-36.43 139.84-37 140.69-37L140.69-37Q141.59-37 142.14-36.43 142.69-35.85 142.69-35L142.69-35ZM154.28-24.25L154.28-2.05Q154.28-1.2 153.71-0.6 153.13 0 152.28 0L152.28 0Q151.38 0 150.83-0.6 150.28-1.2 150.28-2.05L150.28-2.05 150.28-24.25Q150.28-25.1 150.86-25.68 151.43-26.25 152.28-26.25L152.28-26.25Q153.13-26.25 153.71-25.68 154.28-25.1 154.28-24.25L154.28-24.25ZM152.28-29.6L152.28-29.6Q151.03-29.6 150.43-30.1 149.83-30.6 149.83-31.65L149.83-31.65 149.83-32.35Q149.83-33.4 150.48-33.9 151.13-34.4 152.33-34.4L152.33-34.4Q153.53-34.4 154.13-33.9 154.73-33.4 154.73-32.35L154.73-32.35 154.73-31.65Q154.73-30.6 154.11-30.1 153.48-29.6 152.28-29.6ZM163.88 0L163.88 0Q162.98 0 162.43-0.6 161.88-1.2 161.88-2.05L161.88-2.05 161.88-35Q161.88-35.85 162.43-36.43 162.98-37 163.88-37L163.88-37Q164.73-37 165.31-36.43 165.88-35.85 165.88-35L165.88-35 165.88-2.05Q165.88-1.2 165.31-0.6 164.73 0 163.88 0ZM180.48-26L180.48-26Q181.28-26 181.86-25.38 182.43-24.75 182.43-24.1L182.43-24.1Q182.43-23.25 181.63-22.6L181.63-22.6 165.43-8.45 165.28-13.1 179.08-25.4Q179.68-26 180.48-26ZM181.03-0.05L181.03-0.05Q180.18-0.05 179.53-0.7L179.53-0.7 168.88-12.05 171.88-14.8 182.43-3.5Q183.03-2.85 183.03-2L183.03-2Q183.03-1.1 182.33-0.58 181.63-0.05 181.03-0.05ZM199.43 0.5L199.43 0.5Q195.43 0.5 192.43-1.2 189.43-2.9 187.78-5.88 186.13-8.85 186.13-12.75L186.13-12.75Q186.13-17.1 187.85-20.18 189.58-23.25 192.33-24.88 195.08-26.5 198.18-26.5L198.18-26.5Q200.53-26.5 202.65-25.65 204.78-24.8 206.45-23.18 208.13-21.55 209.13-19.28 210.13-17 210.18-14.2L210.18-14.2Q210.13-13.4 209.53-12.85 208.93-12.3 208.13-12.3L208.13-12.3 188.38-12.3 187.48-15.75 206.73-15.75 205.93-15.05 205.93-16.15Q205.78-18.2 204.6-19.68 203.43-21.15 201.73-21.95 200.03-22.75 198.18-22.75L198.18-22.75Q196.68-22.75 195.2-22.23 193.73-21.7 192.55-20.53 191.38-19.35 190.68-17.5 189.98-15.65 189.98-13.05L189.98-13.05Q189.98-10.15 191.15-7.95 192.33-5.75 194.43-4.48 196.53-3.2 199.28-3.2L199.28-3.2Q201.08-3.2 202.38-3.65 203.68-4.1 204.6-4.78 205.53-5.45 206.18-6.15L206.18-6.15Q206.83-6.6 207.48-6.6L207.48-6.6Q208.18-6.6 208.68-6.1 209.18-5.6 209.18-4.9L209.18-4.9Q209.18-4.05 208.38-3.4L208.38-3.4Q206.93-1.85 204.55-0.68 202.18 0.5 199.43 0.5ZM250.72-26.1L250.72-26.1Q251.62-26.1 252.17-25.53 252.72-24.95 252.72-24.1L252.72-24.1 252.72-2.05Q252.72-1.2 252.15-0.6 251.57 0 250.72 0L250.72 0Q249.87 0 249.3-0.6 248.72-1.2 248.72-2.05L248.72-2.05 248.72-6.8 249.67-6.9Q249.67-5.8 248.92-4.5 248.17-3.2 246.87-2.08 245.57-0.95 243.82-0.23 242.07 0.5 240.02 0.5L240.02 0.5Q236.62 0.5 233.9-1.28 231.17-3.05 229.62-6.1 228.07-9.15 228.07-13.05L228.07-13.05Q228.07-17 229.65-20.03 231.22-23.05 233.9-24.78 236.57-26.5 239.92-26.5L239.92-26.5Q242.07-26.5 243.92-25.8 245.77-25.1 247.15-23.9 248.52-22.7 249.27-21.25 250.02-19.8 250.02-18.35L250.02-18.35 248.72-18.65 248.72-24.1Q248.72-24.95 249.3-25.53 249.87-26.1 250.72-26.1ZM240.42-3.2L240.42-3.2Q242.92-3.2 244.85-4.5 246.77-5.8 247.87-8.03 248.97-10.25 248.97-13.05L248.97-13.05Q248.97-15.8 247.87-18.03 246.77-20.25 244.85-21.53 242.92-22.8 240.42-22.8L240.42-22.8Q237.97-22.8 236.05-21.55 234.12-20.3 233.02-18.1 231.92-15.9 231.92-13.05L231.92-13.05Q231.92-10.25 233.02-8.03 234.12-5.8 236.05-4.5 237.97-3.2 240.42-3.2ZM272.42-4.1L272.42-4.1Q271.97-4.75 272.02-5.48 272.07-6.2 272.87-6.75L272.87-6.75Q273.37-7.1 274.04-7.05 274.72-7 275.27-6.4L275.27-6.4Q276.67-4.75 278.47-3.78 280.27-2.8 282.87-2.8L282.87-2.8Q284.07-2.85 285.27-3.2 286.47-3.55 287.29-4.42 288.12-5.3 288.12-6.75L288.12-6.75Q288.12-8.15 287.27-8.97 286.42-9.8 285.07-10.33 283.72-10.85 282.12-11.25L282.12-11.25Q280.47-11.7 278.87-12.28 277.27-12.85 275.99-13.73 274.72-14.6 273.94-15.93 273.17-17.25 273.17-19.15L273.17-19.15Q273.17-21.4 274.39-23.05 275.62-24.7 277.69-25.6 279.77-26.5 282.22-26.5L282.22-26.5Q283.62-26.5 285.14-26.18 286.67-25.85 288.12-25.08 289.57-24.3 290.67-22.95L290.67-22.95Q291.12-22.45 291.17-21.7 291.22-20.95 290.52-20.35L290.52-20.35Q289.97-19.95 289.29-20 288.62-20.05 288.17-20.5L288.17-20.5Q287.12-21.75 285.54-22.43 283.97-23.1 282.07-23.1L282.07-23.1Q280.87-23.1 279.72-22.75 278.57-22.4 277.79-21.58 277.02-20.75 277.02-19.3L277.02-19.3Q277.07-17.95 277.92-17.1 278.77-16.25 280.22-15.73 281.67-15.2 283.42-14.7L283.42-14.7Q285.02-14.3 286.49-13.78 287.97-13.25 289.17-12.4 290.37-11.55 291.07-10.23 291.77-8.9 291.77-6.9L291.77-6.9Q291.77-4.6 290.47-2.93 289.17-1.25 287.04-0.38 284.92 0.5 282.47 0.5L282.47 0.5Q279.72 0.5 277.04-0.55 274.37-1.6 272.42-4.1ZM316.92-25.85L316.92-25.85Q317.82-25.85 318.37-25.28 318.92-24.7 318.92-23.85L318.92-23.85 318.92-10.2Q318.92-5.15 316.09-2.38 313.27 0.4 308.22 0.4L308.22 0.4Q303.22 0.4 300.39-2.38 297.57-5.15 297.57-10.2L297.57-10.2 297.57-23.85Q297.57-24.7 298.14-25.28 298.72-25.85 299.57-25.85L299.57-25.85Q300.47-25.85 301.02-25.28 301.57-24.7 301.57-23.85L301.57-23.85 301.57-10.2Q301.57-6.8 303.32-5.05 305.07-3.3 308.22-3.3L308.22-3.3Q311.47-3.3 313.19-5.05 314.92-6.8 314.92-10.2L314.92-10.2 314.92-23.85Q314.92-24.7 315.49-25.28 316.07-25.85 316.92-25.85ZM339.16-26.5L339.16-26.5Q342.56-26.5 344.51-25.1 346.46-23.7 347.29-21.35 348.11-19 348.11-16.1L348.11-16.1 348.11-2.05Q348.11-1.2 347.54-0.6 346.96 0 346.11 0L346.11 0Q345.26 0 344.69-0.6 344.11-1.2 344.11-2.05L344.11-2.05 344.11-16Q344.11-17.9 343.54-19.43 342.96-20.95 341.64-21.88 340.31-22.8 338.01-22.8L338.01-22.8Q335.91-22.8 334.16-21.88 332.41-20.95 331.36-19.43 330.31-17.9 330.31-16L330.31-16 330.31-2.05Q330.31-1.2 329.74-0.6 329.16 0 328.31 0L328.31 0Q327.46 0 326.89-0.6 326.31-1.2 326.31-2.05L326.31-2.05 326.31-23.85Q326.31-24.7 326.89-25.28 327.46-25.85 328.31-25.85L328.31-25.85Q329.21-25.85 329.76-25.28 330.31-24.7 330.31-23.85L330.31-23.85 330.31-20.3 329.31-19.2Q329.56-20.5 330.46-21.83 331.36-23.15 332.71-24.2 334.06-25.25 335.71-25.88 337.36-26.5 339.16-26.5Z" opacity="1" transform="matrix(1,0,0,1,0,0)" fill="black" class="slogan-text-1" id="SvgjsPath1514"></path></svg></g></svg></g></svg></g></svg></g><g></g></svg></g><defs><mask></mask></defs></svg><rect width="395.52" height="47.468435466299624" fill="black" stroke="none" visibility="hidden"></rect></g></mask><linearGradient x1="0.054" x2="0.941" y1="0.5" y2="0.5" id="6ea6f70b-4216-466c-99b8-8034c71af8c9"><stop stop-color="#26282a" offset="0"></stop><stop stop-color="#9e9fa0" offset="0.498"></stop><stop stop-color="#26282a" offset="1"></stop></linearGradient><rect width="395.52" height="47.468435466299624" fill="#000000" mask="url(#8b1bfc94-f69d-4f12-a55e-16eb10790db9)" data-fill-palette-color="primary"></rect><mask id="33633d72-c9e3-4244-aca6-ce8ced26b57e"><g id="SvgjsG1527"><svg viewBox="0 0 395.52 47.468435466299624" height="47.468435466299624" width="395.52"><g><svg viewBox="0 0 395.52 47.468435466299624" height="47.468435466299624" width="395.52"><g><svg viewBox="0 0 395.52 47.468435466299624" height="47.468435466299624" width="395.52"><g id="SvgjsG1526"><svg viewBox="0 0 395.52 47.468435466299624" height="47.468435466299624" width="395.52" id="SvgjsSvg1525"><g><rect width="260.6301073251879" height="2.5239154954001486" y="39.769419380854714" x="134.88989267481207" fill="black"></rect></g><g><svg viewBox="0 0 395.52 27.987210164107992" height="27.987210164107992" width="395.52"><g transform="matrix(1,0,0,1,0,0)"><svg width="395.52" viewBox="2.66 -38.43 553.38 39.16" height="27.987210164107992" data-palette-color="url(#6ea6f70b-4216-466c-99b8-8034c71af8c9)"></svg></g></svg></g><g transform="matrix(1,0,0,1,0,34.59431879080995)"><svg viewBox="0 0 134.88989267481207 12.874116675489677" height="12.874116675489677" width="134.88989267481207"><g transform="matrix(1,0,0,1,8,0)"><svg width="118.88989267481207" viewBox="1.8451389444500002 -37 346.26486105555 37.5" height="12.874116675489677" data-palette-color="url(#f56f30c5-bfcb-47ea-b5b5-daa50bd6b8bb)"><path d="M2.25-4.1L2.25-4.1Q1.8-4.75 1.85-5.48 1.9-6.2 2.7-6.75L2.7-6.75Q3.2-7.1 3.88-7.05 4.55-7 5.1-6.4L5.1-6.4Q6.5-4.75 8.3-3.78 10.1-2.8 12.7-2.8L12.7-2.8Q13.9-2.85 15.1-3.2 16.3-3.55 17.13-4.42 17.95-5.3 17.95-6.75L17.95-6.75Q17.95-8.15 17.1-8.97 16.25-9.8 14.9-10.33 13.55-10.85 11.95-11.25L11.95-11.25Q10.3-11.7 8.7-12.28 7.1-12.85 5.83-13.73 4.55-14.6 3.78-15.93 3-17.25 3-19.15L3-19.15Q3-21.4 4.23-23.05 5.45-24.7 7.53-25.6 9.6-26.5 12.05-26.5L12.05-26.5Q13.45-26.5 14.98-26.18 16.5-25.85 17.95-25.08 19.4-24.3 20.5-22.95L20.5-22.95Q20.95-22.45 21-21.7 21.05-20.95 20.35-20.35L20.35-20.35Q19.8-19.95 19.13-20 18.45-20.05 18-20.5L18-20.5Q16.95-21.75 15.38-22.43 13.8-23.1 11.9-23.1L11.9-23.1Q10.7-23.1 9.55-22.75 8.4-22.4 7.63-21.58 6.85-20.75 6.85-19.3L6.85-19.3Q6.9-17.95 7.75-17.1 8.6-16.25 10.05-15.73 11.5-15.2 13.25-14.7L13.25-14.7Q14.85-14.3 16.32-13.78 17.8-13.25 19-12.4 20.2-11.55 20.9-10.23 21.6-8.9 21.6-6.9L21.6-6.9Q21.6-4.6 20.3-2.93 19-1.25 16.88-0.38 14.75 0.5 12.3 0.5L12.3 0.5Q9.55 0.5 6.88-0.55 4.2-1.6 2.25-4.1ZM39.9-26.25L39.9-26.25Q43.2-26.25 45.12-24.83 47.05-23.4 47.87-21.03 48.7-18.65 48.7-15.75L48.7-15.75 48.7-2.05Q48.7-1.2 48.12-0.6 47.55 0 46.7 0L46.7 0Q45.85 0 45.27-0.6 44.7-1.2 44.7-2.05L44.7-2.05 44.7-15.75Q44.7-17.65 44.15-19.18 43.6-20.7 42.32-21.63 41.05-22.55 38.85-22.55L38.85-22.55Q36.8-22.55 35.1-21.63 33.4-20.7 32.4-19.18 31.4-17.65 31.4-15.75L31.4-15.75 31.4-2.05Q31.4-1.2 30.82-0.6 30.25 0 29.4 0L29.4 0Q28.55 0 27.97-0.6 27.4-1.2 27.4-2.05L27.4-2.05 27.4-35Q27.4-35.85 27.97-36.43 28.55-37 29.4-37L29.4-37Q30.3-37 30.85-36.43 31.4-35.85 31.4-35L31.4-35 31.4-20.05 30.4-18.95Q30.65-20.25 31.5-21.58 32.35-22.9 33.65-23.95 34.95-25 36.55-25.63 38.15-26.25 39.9-26.25ZM59.95-24.25L59.95-2.05Q59.95-1.2 59.37-0.6 58.8 0 57.95 0L57.95 0Q57.05 0 56.5-0.6 55.95-1.2 55.95-2.05L55.95-2.05 55.95-24.25Q55.95-25.1 56.52-25.68 57.1-26.25 57.95-26.25L57.95-26.25Q58.8-26.25 59.37-25.68 59.95-25.1 59.95-24.25L59.95-24.25ZM57.95-29.6L57.95-29.6Q56.7-29.6 56.1-30.1 55.5-30.6 55.5-31.65L55.5-31.65 55.5-32.35Q55.5-33.4 56.15-33.9 56.8-34.4 58-34.4L58-34.4Q59.2-34.4 59.8-33.9 60.4-33.4 60.4-32.35L60.4-32.35 60.4-31.65Q60.4-30.6 59.77-30.1 59.15-29.6 57.95-29.6ZM79.99-26.5L79.99-26.5Q83.39-26.5 85.34-25.1 87.29-23.7 88.12-21.35 88.94-19 88.94-16.1L88.94-16.1 88.94-2.05Q88.94-1.2 88.37-0.6 87.79 0 86.94 0L86.94 0Q86.09 0 85.52-0.6 84.94-1.2 84.94-2.05L84.94-2.05 84.94-16Q84.94-17.9 84.37-19.43 83.79-20.95 82.47-21.88 81.14-22.8 78.84-22.8L78.84-22.8Q76.74-22.8 74.99-21.88 73.24-20.95 72.19-19.43 71.14-17.9 71.14-16L71.14-16 71.14-2.05Q71.14-1.2 70.57-0.6 69.99 0 69.14 0L69.14 0Q68.29 0 67.72-0.6 67.14-1.2 67.14-2.05L67.14-2.05 67.14-23.85Q67.14-24.7 67.72-25.28 68.29-25.85 69.14-25.85L69.14-25.85Q70.04-25.85 70.59-25.28 71.14-24.7 71.14-23.85L71.14-23.85 71.14-20.3 70.14-19.2Q70.39-20.5 71.29-21.83 72.19-23.15 73.54-24.2 74.89-25.25 76.54-25.88 78.19-26.5 79.99-26.5ZM108.04 0.5L108.04 0.5Q104.04 0.5 101.04-1.2 98.04-2.9 96.39-5.88 94.74-8.85 94.74-12.75L94.74-12.75Q94.74-17.1 96.47-20.18 98.19-23.25 100.94-24.88 103.69-26.5 106.79-26.5L106.79-26.5Q109.14-26.5 111.27-25.65 113.39-24.8 115.07-23.18 116.74-21.55 117.74-19.28 118.74-17 118.79-14.2L118.79-14.2Q118.74-13.4 118.14-12.85 117.54-12.3 116.74-12.3L116.74-12.3 96.99-12.3 96.09-15.75 115.34-15.75 114.54-15.05 114.54-16.15Q114.39-18.2 113.22-19.68 112.04-21.15 110.34-21.95 108.64-22.75 106.79-22.75L106.79-22.75Q105.29-22.75 103.82-22.23 102.34-21.7 101.17-20.53 99.99-19.35 99.29-17.5 98.59-15.65 98.59-13.05L98.59-13.05Q98.59-10.15 99.77-7.95 100.94-5.75 103.04-4.48 105.14-3.2 107.89-3.2L107.89-3.2Q109.69-3.2 110.99-3.65 112.29-4.1 113.22-4.78 114.14-5.45 114.79-6.15L114.79-6.15Q115.44-6.6 116.09-6.6L116.09-6.6Q116.79-6.6 117.29-6.1 117.79-5.6 117.79-4.9L117.79-4.9Q117.79-4.05 116.99-3.4L116.99-3.4Q115.54-1.85 113.17-0.68 110.79 0.5 108.04 0.5ZM142.69-35L142.69-2.05Q142.69-1.2 142.09-0.6 141.49 0 140.64 0L140.64 0Q139.79 0 139.24-0.6 138.69-1.2 138.69-2.05L138.69-2.05 138.69-35Q138.69-35.85 139.26-36.43 139.84-37 140.69-37L140.69-37Q141.59-37 142.14-36.43 142.69-35.85 142.69-35L142.69-35ZM154.28-24.25L154.28-2.05Q154.28-1.2 153.71-0.6 153.13 0 152.28 0L152.28 0Q151.38 0 150.83-0.6 150.28-1.2 150.28-2.05L150.28-2.05 150.28-24.25Q150.28-25.1 150.86-25.68 151.43-26.25 152.28-26.25L152.28-26.25Q153.13-26.25 153.71-25.68 154.28-25.1 154.28-24.25L154.28-24.25ZM152.28-29.6L152.28-29.6Q151.03-29.6 150.43-30.1 149.83-30.6 149.83-31.65L149.83-31.65 149.83-32.35Q149.83-33.4 150.48-33.9 151.13-34.4 152.33-34.4L152.33-34.4Q153.53-34.4 154.13-33.9 154.73-33.4 154.73-32.35L154.73-32.35 154.73-31.65Q154.73-30.6 154.11-30.1 153.48-29.6 152.28-29.6ZM163.88 0L163.88 0Q162.98 0 162.43-0.6 161.88-1.2 161.88-2.05L161.88-2.05 161.88-35Q161.88-35.85 162.43-36.43 162.98-37 163.88-37L163.88-37Q164.73-37 165.31-36.43 165.88-35.85 165.88-35L165.88-35 165.88-2.05Q165.88-1.2 165.31-0.6 164.73 0 163.88 0ZM180.48-26L180.48-26Q181.28-26 181.86-25.38 182.43-24.75 182.43-24.1L182.43-24.1Q182.43-23.25 181.63-22.6L181.63-22.6 165.43-8.45 165.28-13.1 179.08-25.4Q179.68-26 180.48-26ZM181.03-0.05L181.03-0.05Q180.18-0.05 179.53-0.7L179.53-0.7 168.88-12.05 171.88-14.8 182.43-3.5Q183.03-2.85 183.03-2L183.03-2Q183.03-1.1 182.33-0.58 181.63-0.05 181.03-0.05ZM199.43 0.5L199.43 0.5Q195.43 0.5 192.43-1.2 189.43-2.9 187.78-5.88 186.13-8.85 186.13-12.75L186.13-12.75Q186.13-17.1 187.85-20.18 189.58-23.25 192.33-24.88 195.08-26.5 198.18-26.5L198.18-26.5Q200.53-26.5 202.65-25.65 204.78-24.8 206.45-23.18 208.13-21.55 209.13-19.28 210.13-17 210.18-14.2L210.18-14.2Q210.13-13.4 209.53-12.85 208.93-12.3 208.13-12.3L208.13-12.3 188.38-12.3 187.48-15.75 206.73-15.75 205.93-15.05 205.93-16.15Q205.78-18.2 204.6-19.68 203.43-21.15 201.73-21.95 200.03-22.75 198.18-22.75L198.18-22.75Q196.68-22.75 195.2-22.23 193.73-21.7 192.55-20.53 191.38-19.35 190.68-17.5 189.98-15.65 189.98-13.05L189.98-13.05Q189.98-10.15 191.15-7.95 192.33-5.75 194.43-4.48 196.53-3.2 199.28-3.2L199.28-3.2Q201.08-3.2 202.38-3.65 203.68-4.1 204.6-4.78 205.53-5.45 206.18-6.15L206.18-6.15Q206.83-6.6 207.48-6.6L207.48-6.6Q208.18-6.6 208.68-6.1 209.18-5.6 209.18-4.9L209.18-4.9Q209.18-4.05 208.38-3.4L208.38-3.4Q206.93-1.85 204.55-0.68 202.18 0.5 199.43 0.5ZM250.72-26.1L250.72-26.1Q251.62-26.1 252.17-25.53 252.72-24.95 252.72-24.1L252.72-24.1 252.72-2.05Q252.72-1.2 252.15-0.6 251.57 0 250.72 0L250.72 0Q249.87 0 249.3-0.6 248.72-1.2 248.72-2.05L248.72-2.05 248.72-6.8 249.67-6.9Q249.67-5.8 248.92-4.5 248.17-3.2 246.87-2.08 245.57-0.95 243.82-0.23 242.07 0.5 240.02 0.5L240.02 0.5Q236.62 0.5 233.9-1.28 231.17-3.05 229.62-6.1 228.07-9.15 228.07-13.05L228.07-13.05Q228.07-17 229.65-20.03 231.22-23.05 233.9-24.78 236.57-26.5 239.92-26.5L239.92-26.5Q242.07-26.5 243.92-25.8 245.77-25.1 247.15-23.9 248.52-22.7 249.27-21.25 250.02-19.8 250.02-18.35L250.02-18.35 248.72-18.65 248.72-24.1Q248.72-24.95 249.3-25.53 249.87-26.1 250.72-26.1ZM240.42-3.2L240.42-3.2Q242.92-3.2 244.85-4.5 246.77-5.8 247.87-8.03 248.97-10.25 248.97-13.05L248.97-13.05Q248.97-15.8 247.87-18.03 246.77-20.25 244.85-21.53 242.92-22.8 240.42-22.8L240.42-22.8Q237.97-22.8 236.05-21.55 234.12-20.3 233.02-18.1 231.92-15.9 231.92-13.05L231.92-13.05Q231.92-10.25 233.02-8.03 234.12-5.8 236.05-4.5 237.97-3.2 240.42-3.2ZM272.42-4.1L272.42-4.1Q271.97-4.75 272.02-5.48 272.07-6.2 272.87-6.75L272.87-6.75Q273.37-7.1 274.04-7.05 274.72-7 275.27-6.4L275.27-6.4Q276.67-4.75 278.47-3.78 280.27-2.8 282.87-2.8L282.87-2.8Q284.07-2.85 285.27-3.2 286.47-3.55 287.29-4.42 288.12-5.3 288.12-6.75L288.12-6.75Q288.12-8.15 287.27-8.97 286.42-9.8 285.07-10.33 283.72-10.85 282.12-11.25L282.12-11.25Q280.47-11.7 278.87-12.28 277.27-12.85 275.99-13.73 274.72-14.6 273.94-15.93 273.17-17.25 273.17-19.15L273.17-19.15Q273.17-21.4 274.39-23.05 275.62-24.7 277.69-25.6 279.77-26.5 282.22-26.5L282.22-26.5Q283.62-26.5 285.14-26.18 286.67-25.85 288.12-25.08 289.57-24.3 290.67-22.95L290.67-22.95Q291.12-22.45 291.17-21.7 291.22-20.95 290.52-20.35L290.52-20.35Q289.97-19.95 289.29-20 288.62-20.05 288.17-20.5L288.17-20.5Q287.12-21.75 285.54-22.43 283.97-23.1 282.07-23.1L282.07-23.1Q280.87-23.1 279.72-22.75 278.57-22.4 277.79-21.58 277.02-20.75 277.02-19.3L277.02-19.3Q277.07-17.95 277.92-17.1 278.77-16.25 280.22-15.73 281.67-15.2 283.42-14.7L283.42-14.7Q285.02-14.3 286.49-13.78 287.97-13.25 289.17-12.4 290.37-11.55 291.07-10.23 291.77-8.9 291.77-6.9L291.77-6.9Q291.77-4.6 290.47-2.93 289.17-1.25 287.04-0.38 284.92 0.5 282.47 0.5L282.47 0.5Q279.72 0.5 277.04-0.55 274.37-1.6 272.42-4.1ZM316.92-25.85L316.92-25.85Q317.82-25.85 318.37-25.28 318.92-24.7 318.92-23.85L318.92-23.85 318.92-10.2Q318.92-5.15 316.09-2.38 313.27 0.4 308.22 0.4L308.22 0.4Q303.22 0.4 300.39-2.38 297.57-5.15 297.57-10.2L297.57-10.2 297.57-23.85Q297.57-24.7 298.14-25.28 298.72-25.85 299.57-25.85L299.57-25.85Q300.47-25.85 301.02-25.28 301.57-24.7 301.57-23.85L301.57-23.85 301.57-10.2Q301.57-6.8 303.32-5.05 305.07-3.3 308.22-3.3L308.22-3.3Q311.47-3.3 313.19-5.05 314.92-6.8 314.92-10.2L314.92-10.2 314.92-23.85Q314.92-24.7 315.49-25.28 316.07-25.85 316.92-25.85ZM339.16-26.5L339.16-26.5Q342.56-26.5 344.51-25.1 346.46-23.7 347.29-21.35 348.11-19 348.11-16.1L348.11-16.1 348.11-2.05Q348.11-1.2 347.54-0.6 346.96 0 346.11 0L346.11 0Q345.26 0 344.69-0.6 344.11-1.2 344.11-2.05L344.11-2.05 344.11-16Q344.11-17.9 343.54-19.43 342.96-20.95 341.64-21.88 340.31-22.8 338.01-22.8L338.01-22.8Q335.91-22.8 334.16-21.88 332.41-20.95 331.36-19.43 330.31-17.9 330.31-16L330.31-16 330.31-2.05Q330.31-1.2 329.74-0.6 329.16 0 328.31 0L328.31 0Q327.46 0 326.89-0.6 326.31-1.2 326.31-2.05L326.31-2.05 326.31-23.85Q326.31-24.7 326.89-25.28 327.46-25.85 328.31-25.85L328.31-25.85Q329.21-25.85 329.76-25.28 330.31-24.7 330.31-23.85L330.31-23.85 330.31-20.3 329.31-19.2Q329.56-20.5 330.46-21.83 331.36-23.15 332.71-24.2 334.06-25.25 335.71-25.88 337.36-26.5 339.16-26.5Z" opacity="1" transform="matrix(1,0,0,1,0,0)" fill="white" class="slogan-text-1" id="SvgjsPath1524"></path></svg></g></svg></g></svg></g></svg></g><g></g></svg></g><defs><mask></mask></defs><mask><g id="SvgjsG1523"><svg viewBox="0 0 395.52 47.468435466299624" height="47.468435466299624" width="395.52"><g><svg viewBox="0 0 395.52 47.468435466299624" height="47.468435466299624" width="395.52"><g><svg viewBox="0 0 395.52 47.468435466299624" height="47.468435466299624" width="395.52"><g id="SvgjsG1522"><svg viewBox="0 0 395.52 47.468435466299624" height="47.468435466299624" width="395.52" id="SvgjsSvg1521"><g><rect width="260.6301073251879" height="2.5239154954001486" y="39.769419380854714" x="134.88989267481207" fill="black"></rect></g><g><svg viewBox="0 0 395.52 27.987210164107992" height="27.987210164107992" width="395.52"><g transform="matrix(1,0,0,1,0,0)"><svg width="395.52" viewBox="2.66 -38.43 553.38 39.16" height="27.987210164107992" data-palette-color="url(#6ea6f70b-4216-466c-99b8-8034c71af8c9)"><path d="M2.66-18.46L2.66-18.46Q2.66-21.97 3.43-24.82 4.2-27.66 5.54-29.88 6.88-32.1 8.69-33.72 10.5-35.33 12.6-36.38 14.7-37.43 16.98-37.93 19.26-38.43 21.53-38.43L21.53-38.43Q23.61-38.43 25.61-38.05 27.61-37.67 29.57-36.99L29.57-36.99Q30.15-36.77 30.75-36.56 31.35-36.35 31.82-36.04 32.3-35.72 32.59-35.23 32.89-34.74 32.89-33.98L32.89-33.98Q32.89-33.11 32.6-32.53 32.32-31.96 31.88-31.62 31.45-31.27 30.92-31.13 30.4-30.98 29.91-30.98L29.91-30.98Q29.57-30.98 29.17-31.09 28.78-31.2 28.37-31.37 27.95-31.54 27.56-31.77 27.17-32.01 26.86-32.23L26.86-32.23Q25.98-32.59 25.21-32.78 24.44-32.96 23.73-33.04 23.02-33.13 22.34-33.14 21.66-33.15 20.97-33.15L20.97-33.15Q19.43-33.15 17.9-32.8 16.36-32.45 14.93-31.7 13.5-30.96 12.26-29.83 11.01-28.71 10.1-27.16 9.18-25.61 8.65-23.63 8.13-21.66 8.13-19.21L8.13-19.21Q8.13-15.16 9.29-12.37 10.45-9.57 12.32-7.84 14.18-6.1 16.53-5.33 18.87-4.57 21.26-4.57L21.26-4.57Q22.36-4.57 23.43-4.7 24.49-4.83 25.4-5.04 26.32-5.25 27.03-5.51 27.73-5.76 28.1-6.03L28.1-6.03Q28.83-6.67 29.39-6.99 29.96-7.32 30.69-7.32L30.69-7.32Q31.25-7.32 31.75-7.2 32.25-7.08 32.62-6.77 32.98-6.47 33.2-5.98 33.42-5.49 33.42-4.76L33.42-4.76Q33.42-3.74 32.73-2.89 32.03-2.05 30.49-1.32L30.49-1.32 30.49-1.34Q29.98-1.05 28.99-0.68 28-0.32 26.77-0.01 25.54 0.29 24.17 0.5 22.8 0.71 21.48 0.71L21.48 0.71Q18.48 0.71 15.93-0.01 13.38-0.73 11.29-2.01 9.2-3.3 7.59-5.08 5.98-6.86 4.88-8.98 3.78-11.11 3.22-13.51 2.66-15.92 2.66-18.46ZM37.35-1.88L37.35-1.88Q37.35-2.66 37.57-3.45 37.79-4.25 38.38-5.05L38.38-5.05Q38.79-5.76 39.51-7.2 40.23-8.64 41.14-10.6 42.04-12.55 43.08-14.86 44.11-17.16 45.19-19.57 46.26-21.97 47.32-24.38 48.39-26.78 49.34-28.89 50.29-31.01 51.07-32.71 51.85-34.42 52.39-35.47L52.39-35.47Q52.46-36.01 52.68-36.54 52.9-37.06 53.27-37.49 53.64-37.92 54.15-38.17 54.66-38.43 55.34-38.43L55.34-38.43Q56.22-38.43 56.77-38.18 57.32-37.94 57.68-37.51 58.03-37.08 58.25-36.52 58.47-35.96 58.69-35.33L58.69-35.33Q58.88-34.77 59.06-34.27 59.23-33.76 59.37-33.5L59.37-33.5Q61.01-30.22 62.56-26.9 64.11-23.58 65.63-20.15 67.16-16.72 68.72-13.21 70.29-9.69 71.97-6.05L71.97-6.05 72.43-5.37Q72.63-5.1 72.9-4.72 73.17-4.35 73.4-3.91 73.63-3.47 73.79-2.98 73.95-2.49 73.95-2L73.95-2Q73.95-0.54 73.12 0.09 72.29 0.71 71.09 0.71L71.09 0.71Q70.43 0.71 69.88 0.5 69.33 0.29 68.92-0.06 68.5-0.42 68.26-0.89 68.02-1.37 67.94-1.9L67.94-1.9Q67.26-3.39 66.67-4.7 66.09-6.01 65.54-7.23 64.99-8.45 64.48-9.61 63.96-10.77 63.45-11.94L63.45-11.94Q63.06-11.94 62.35-11.95 61.64-11.96 60.76-12.01L60.76-12.01Q59.37-12.01 57.94-12.04 56.52-12.06 55.03-12.07 53.54-12.08 51.95-12.07 50.36-12.06 48.63-11.99L48.63-11.99Q48.36-11.96 48.12-11.95 47.87-11.94 47.6-11.94L47.6-11.94Q46.92-10.28 46.31-8.78 45.7-7.28 45.21-6.01 44.72-4.74 44.35-3.75 43.97-2.76 43.77-2.15L43.77-2.15 43.77-2.17Q43.63-1.64 43.44-1.12 43.26-0.61 42.92-0.21 42.58 0.2 41.98 0.45 41.38 0.71 40.4 0.71L40.4 0.71Q39.08 0.71 38.22 0.05 37.35-0.61 37.35-1.88ZM49.83-17.26L49.83-17.26Q50.34-17.26 51.16-17.26 51.98-17.26 53.28-17.25 54.59-17.24 56.49-17.22 58.4-17.21 61.11-17.19L61.11-17.19Q59.98-19.63 58.57-22.69 57.15-25.76 55.22-29.83L55.22-29.83Q54.66-28.59 54.03-27.1 53.39-25.61 52.7-24 52-22.39 51.28-20.68 50.56-18.97 49.83-17.26ZM76.04-1.93L76.04-1.93Q76.04-2.37 76.17-2.69L76.17-2.69Q76.36-3.2 76.84-4.76 77.31-6.32 78.01-8.63 78.71-10.94 79.57-13.84 80.44-16.75 81.4-19.98 82.37-23.22 83.38-26.61 84.39-30 85.37-33.3L85.37-33.3 85.37-33.28Q85.54-33.96 85.75-34.66 85.96-35.35 86.16-35.94 86.37-36.52 86.58-36.95 86.79-37.38 86.93-37.52L86.93-37.52Q87.32-37.94 87.98-38.18 88.64-38.43 89.28-38.43L89.28-38.43Q90.13-38.43 90.69-38.12 91.25-37.82 91.66-37.22 92.06-36.62 92.37-35.74 92.67-34.86 93.01-33.74L93.01-33.74 99.14-14.28 99.48-13.26Q100.8-17.31 101.72-20.51 102.63-23.71 103.3-26.21 103.97-28.71 104.47-30.62 104.98-32.52 105.46-34.03L105.46-34.03Q105.71-34.79 105.95-35.57 106.2-36.35 106.57-36.99 106.95-37.62 107.55-38.02 108.15-38.43 109.15-38.43L109.15-38.43Q110-38.43 110.64-38.17 111.27-37.92 111.64-37.01L111.64-37.01Q111.81-36.6 111.98-36.16 112.15-35.72 112.41-35.05 112.67-34.38 113.03-33.35 113.4-32.32 113.94-30.74 114.47-29.15 115.2-26.9 115.94-24.66 116.95-21.52 117.96-18.38 119.27-14.25 120.58-10.11 122.24-4.79L122.24-4.79Q122.53-4 122.71-3.44 122.9-2.88 122.94-2.39L122.94-2.39Q122.99-1.76 122.88-1.2 122.77-0.63 122.48-0.21 122.19 0.22 121.67 0.46 121.16 0.71 120.41 0.71L120.41 0.71Q119.43 0.71 118.79 0.31 118.16-0.1 117.76-0.68 117.35-1.27 117.13-1.95 116.91-2.64 116.79-3.22L116.79-3.22Q116.33-4.93 115.74-7.02 115.16-9.11 114.5-11.4 113.84-13.7 113.13-16.08 112.42-18.46 111.73-20.74 111.03-23.02 110.36-25.07 109.69-27.12 109.1-28.78L109.1-28.78Q108.17-26.2 107.42-23.55 106.66-20.9 105.92-18.23 105.17-15.55 104.38-12.88 103.58-10.21 102.61-7.57L102.61-7.57Q102.41-7.08 102.33-6.49 102.24-5.91 102.24-5.52L102.24-5.52Q102.24-4.83 101.97-4.39 101.7-3.96 101.28-3.7 100.85-3.44 100.31-3.33 99.78-3.22 99.24-3.22L99.24-3.22Q98.33-3.22 97.79-3.48 97.24-3.74 96.91-4.17 96.58-4.61 96.42-5.16 96.26-5.71 96.16-6.3L96.16-6.3Q96.11-6.64 96.05-6.97 95.99-7.3 95.89-7.64L95.89-7.64Q95.48-9.11 94.98-10.88 94.48-12.65 93.92-14.56 93.35-16.48 92.76-18.44 92.16-20.41 91.56-22.28 90.96-24.15 90.39-25.83 89.81-27.51 89.33-28.86L89.33-28.86Q88.72-27.2 88.07-24.96 87.42-22.73 86.75-20.23 86.08-17.72 85.41-15.09 84.74-12.45 84.09-9.95 83.44-7.45 82.83-5.22 82.22-3 81.68-1.37L81.68-1.37Q81.12-0.42 80.57 0.15 80.02 0.71 78.95 0.71L78.95 0.71Q78.32 0.71 77.79 0.5 77.27 0.29 76.87-0.07 76.48-0.44 76.26-0.92 76.04-1.39 76.04-1.93ZM129.09-2.71L129.09-2.71Q129.09-3.42 129.3-4.11 129.51-4.81 129.51-5.59L129.51-5.59 129.14-34.74Q129.17-36.6 129.79-37.49 130.41-38.38 131.93-38.38L131.93-38.38Q132.76-38.38 133.32-38.23 133.88-38.09 134.22-37.72 134.56-37.35 134.7-36.77 134.83-36.18 134.83-35.3L134.83-35.3 134.83-31.64Q134.83-30.13 134.82-28.04 134.81-25.95 134.81-23.58 134.81-21.22 134.81-18.69 134.81-16.16 134.81-13.76 134.81-11.35 134.81-9.2 134.81-7.06 134.83-5.44L134.83-5.44Q137.69-5.44 139.65-5.46 141.62-5.47 142.89-5.52L142.89-5.52Q143.57-5.57 144.26-5.68 144.94-5.79 145.72-5.79L145.72-5.79Q147.33-5.79 148.17-5.05 149.02-4.32 149.02-2.91L149.02-2.91Q149.02-1.95 148.65-1.38 148.28-0.81 147.69-0.5 147.09-0.2 146.34-0.1 145.6 0 144.84 0L144.84 0 131.88 0Q131.27 0 130.75-0.11 130.24-0.22 129.88-0.51 129.51-0.81 129.3-1.33 129.09-1.86 129.09-2.71ZM155.92-2.76L155.92-2.76Q155.92-3.17 156.03-3.64 156.14-4.1 156.26-4.49L156.26-4.49 156.48-5.27 155.92-34.47Q155.92-35.67 156.2-36.33 156.48-36.99 156.92-37.3 157.36-37.62 157.94-37.67 158.51-37.72 159.1-37.72L159.1-37.72 171.96-37.72Q172.4-37.77 172.95-37.85 173.5-37.94 173.72-37.94L173.72-37.94Q174.65-37.94 175.22-37.77 175.8-37.6 176.13-37.27 176.45-36.94 176.56-36.45 176.67-35.96 176.67-35.3L176.67-35.3Q176.67-34.38 176.44-33.81 176.21-33.25 175.81-32.95 175.41-32.64 174.87-32.54 174.33-32.45 173.72-32.45L173.72-32.45Q173.45-32.45 173.01-32.46 172.57-32.47 172.08-32.52L172.08-32.52Q169.72-32.52 168.26-32.52 166.81-32.52 165.94-32.51 165.08-32.5 164.63-32.5 164.17-32.5 163.83-32.5L163.83-32.5 161.56-32.5 161.56-24.76Q161.71-24.76 161.92-24.74 162.12-24.73 162.56-24.73 163-24.73 163.77-24.73 164.54-24.73 165.83-24.73 167.13-24.73 169.03-24.73 170.94-24.73 173.65-24.73L173.65-24.73Q173.92-24.73 174.26-24.76 174.6-24.78 174.94-24.83L174.94-24.83Q175.38-24.88 175.97-24.93 176.55-24.98 177.24-24.98L177.24-24.98Q177.9-24.98 178.41-24.71 178.92-24.44 179.27-24.04 179.63-23.63 179.81-23.17 179.99-22.71 179.99-22.29L179.99-22.29Q179.99-20.97 179.13-20.36 178.26-19.75 176.89-19.75L176.89-19.75 161.56-19.73 161.56-5.1Q163.98-5.1 166.42-5.03 168.86-4.96 171.52-4.96L171.52-4.96Q172.26-4.96 172.87-5.03 173.48-5.1 174.04-5.2L174.04-5.2Q174.55-5.27 175.08-5.33 175.6-5.4 176.24-5.4L176.24-5.4Q176.97-5.4 177.59-5.29 178.21-5.18 178.68-4.9 179.14-4.61 179.41-4.14 179.68-3.66 179.68-2.93L179.68-2.93Q179.68-1.86 179.31-1.27 178.95-0.68 178.32-0.4 177.7-0.12 176.91-0.06 176.11 0 175.26 0L175.26 0 158.83 0Q158.19 0 157.67-0.15 157.14-0.29 156.75-0.62 156.36-0.95 156.14-1.48 155.92-2 155.92-2.76ZM188.29-1.56L188.29-1.56Q188.29-2.59 188.44-3.3 188.59-4 188.61-3.96L188.61-3.96Q188.66-6.62 188.7-9.35 188.73-12.08 188.73-15.14L188.73-15.14Q188.73-17.07 188.73-19.32 188.73-21.58 188.7-23.89 188.66-26.2 188.59-28.43 188.51-30.66 188.39-32.57L188.39-32.57Q188.29-33.13 188.24-33.58 188.2-34.03 188.2-34.55L188.2-34.55Q188.2-35.74 188.71-36.44 189.22-37.13 190.37-37.4L190.37-37.4Q190.86-37.82 191.45-37.98 192.05-38.13 192.61-38.13L192.61-38.13Q193.2-38.13 193.68-37.79 194.15-37.45 194.52-36.99 194.88-36.52 195.13-36.02 195.37-35.52 195.47-35.21L195.47-35.21Q196.23-34.08 197.29-32.64 198.35-31.2 199.61-29.55 200.87-27.91 202.28-26.11 203.7-24.32 205.15-22.49 206.6-20.65 208.04-18.84 209.48-17.02 210.78-15.33 212.07-13.65 213.2-12.15 214.32-10.64 215.12-9.45L215.12-9.45Q215.12-14.67 215.09-18.44 215.05-22.22 215-24.87 214.95-27.51 214.88-29.22 214.81-30.93 214.76-32.06 214.71-33.18 214.67-33.9 214.64-34.62 214.64-35.28L214.64-35.28Q214.64-36.25 214.84-36.88 215.05-37.5 215.43-37.84 215.81-38.18 216.37-38.31 216.93-38.43 217.66-38.43L217.66-38.43Q218.62-38.43 219.15-38.04 219.69-37.65 219.97-37.05 220.25-36.45 220.31-35.71 220.37-34.96 220.37-34.25L220.37-34.25 220.37-6.25Q220.37-5.37 220.47-4.48 220.57-3.59 220.57-2.59L220.57-2.59Q220.57-1.64 220.42-1.01 220.28-0.39 219.95 0 219.62 0.39 219.09 0.55 218.57 0.71 217.83 0.71L217.83 0.71Q216.47 0.71 215.65 0.02 214.83-0.66 214.49-1.64L214.49-1.64Q212.17-4.81 209.79-7.9 207.41-10.99 204.99-14.07 202.58-17.16 200.13-20.3 197.69-23.44 195.28-26.68L195.28-26.68 193.81-28.98Q193.84-25.24 193.86-22.33 193.88-19.41 193.91-17.13 193.93-14.84 193.96-13.1 193.98-11.35 193.99-9.97 194.01-8.59 194.02-7.46 194.03-6.32 194.03-5.25L194.03-5.25Q194.05-4.61 194.12-3.89 194.18-3.17 194.18-2.49L194.18-2.49Q194.18-1.86 194.07-1.27 193.96-0.68 193.64-0.24 193.32 0.2 192.75 0.45 192.18 0.71 191.25 0.71L191.25 0.71Q190 0.71 189.15 0.1 188.29-0.51 188.29-1.56ZM248.81-17.94L248.81-17.94Q248.79-21.83 248.82-25.74 248.86-29.66 248.86-33.96L248.86-33.96Q248.86-34.99 248.97-35.82 249.08-36.65 249.37-37.23 249.67-37.82 250.17-38.12 250.67-38.43 251.45-38.43L251.45-38.43Q253.23-38.43 253.96-37.39 254.69-36.35 254.69-34.57L254.69-34.57Q254.69-34.06 254.67-33.47 254.65-32.89 254.62-32.08 254.6-31.27 254.56-30.13 254.52-28.98 254.5-27.37 254.47-25.76 254.45-23.56 254.43-21.36 254.43-18.43L254.43-18.43Q254.43-16.67 254.54-14.95 254.65-13.23 254.98-11.68 255.3-10.13 255.92-8.81 256.53-7.5 257.49-6.53 258.45-5.57 259.86-5.03 261.26-4.49 263.19-4.49L263.19-4.49Q265.41-4.49 266.95-5.4 268.49-6.3 269.45-8.03 270.42-9.77 270.84-12.32 271.27-14.87 271.27-18.16L271.27-18.16Q271.27-24.1 271.17-28.2 271.08-32.3 271.03-34.13L271.03-34.13Q271-34.5 271-34.89 271-35.28 271-35.35L271-35.35Q271-37.08 271.77-37.76 272.54-38.43 273.84-38.43L273.84-38.43Q274.67-38.43 275.24-38.18 275.81-37.94 276.15-37.55 276.5-37.16 276.64-36.67 276.79-36.18 276.79-35.72L276.79-35.72Q276.79-34.91 276.73-34.07 276.67-33.23 276.67-32.32L276.67-32.32Q276.67-30.37 276.69-28.71 276.72-27.05 276.76-25.54L276.76-25.54Q276.76-23.78 276.81-21.98 276.86-20.19 276.86-18.12L276.86-18.12Q276.86-13.65 276.02-10.14 275.18-6.64 273.44-4.22 271.71-1.81 269.09-0.54 266.46 0.73 262.92 0.73L262.92 0.73Q261.14 0.73 259.41 0.4 257.67 0.07 256.11-0.73 254.55-1.54 253.22-2.91 251.89-4.27 250.91-6.35 249.93-8.42 249.37-11.28 248.81-14.14 248.81-17.94ZM286.43-1.56L286.43-1.56Q286.43-2.59 286.58-3.3 286.72-4 286.75-3.96L286.75-3.96Q286.8-6.62 286.83-9.35 286.87-12.08 286.87-15.14L286.87-15.14Q286.87-17.07 286.87-19.32 286.87-21.58 286.83-23.89 286.8-26.2 286.72-28.43 286.65-30.66 286.53-32.57L286.53-32.57Q286.43-33.13 286.38-33.58 286.33-34.03 286.33-34.55L286.33-34.55Q286.33-35.74 286.85-36.44 287.36-37.13 288.51-37.4L288.51-37.4Q288.99-37.82 289.59-37.98 290.19-38.13 290.75-38.13L290.75-38.13Q291.34-38.13 291.81-37.79 292.29-37.45 292.66-36.99 293.02-36.52 293.27-36.02 293.51-35.52 293.61-35.21L293.61-35.21Q294.36-34.08 295.43-32.64 296.49-31.2 297.75-29.55 299-27.91 300.42-26.11 301.84-24.32 303.29-22.49 304.74-20.65 306.18-18.84 307.62-17.02 308.92-15.33 310.21-13.65 311.33-12.15 312.46-10.64 313.26-9.45L313.26-9.45Q313.26-14.67 313.22-18.44 313.19-22.22 313.14-24.87 313.09-27.51 313.02-29.22 312.94-30.93 312.9-32.06 312.85-33.18 312.81-33.9 312.77-34.62 312.77-35.28L312.77-35.28Q312.77-36.25 312.98-36.88 313.19-37.5 313.57-37.84 313.94-38.18 314.51-38.31 315.07-38.43 315.8-38.43L315.8-38.43Q316.75-38.43 317.29-38.04 317.83-37.65 318.11-37.05 318.39-36.45 318.45-35.71 318.51-34.96 318.51-34.25L318.51-34.25 318.51-6.25Q318.51-5.37 318.61-4.48 318.71-3.59 318.71-2.59L318.71-2.59Q318.71-1.64 318.56-1.01 318.41-0.39 318.08 0 317.75 0.39 317.23 0.55 316.7 0.71 315.97 0.71L315.97 0.71Q314.6 0.71 313.79 0.02 312.97-0.66 312.63-1.64L312.63-1.64Q310.31-4.81 307.93-7.9 305.55-10.99 303.13-14.07 300.71-17.16 298.27-20.3 295.83-23.44 293.41-26.68L293.41-26.68 291.95-28.98Q291.97-25.24 292-22.33 292.02-19.41 292.05-17.13 292.07-14.84 292.09-13.1 292.12-11.35 292.13-9.97 292.14-8.59 292.16-7.46 292.17-6.32 292.17-5.25L292.17-5.25Q292.19-4.61 292.25-3.89 292.31-3.17 292.31-2.49L292.31-2.49Q292.31-1.86 292.2-1.27 292.09-0.68 291.78-0.24 291.46 0.2 290.89 0.45 290.31 0.71 289.38 0.71L289.38 0.71Q288.14 0.71 287.28 0.1 286.43-0.51 286.43-1.56ZM330.23-1.95L330.23-1.95Q330.23-3.2 330.41-4.41 330.59-5.62 330.59-6.98L330.59-6.98Q330.59-13.21 330.48-19.51 330.37-25.81 330.37-32.45L330.37-32.45Q330.37-33.13 330.23-33.83 330.08-34.52 330.08-35.33L330.08-35.33Q330.08-35.96 330.25-36.52 330.42-37.08 330.84-37.51 331.25-37.94 331.98-38.18 332.72-38.43 333.82-38.43L333.82-38.43Q334.91-38.43 335.55-37.6 336.18-36.77 336.18-35.38L336.18-35.38Q336.18-34.96 336.11-34.56 336.04-34.16 335.96-33.72L335.96-33.72Q335.92-31.62 335.89-29.2 335.87-26.78 335.87-23.66L335.87-23.66Q335.87-20.87 335.89-17.97 335.92-15.06 335.96-12.38 336.01-9.69 336.1-7.36 336.18-5.03 336.31-3.34L336.31-3.34 336.31-3.37Q336.35-3 336.39-2.67 336.43-2.34 336.43-2L336.43-2Q336.43-1.42 336.29-0.92 336.16-0.42 335.84-0.05 335.52 0.32 334.96 0.51 334.4 0.71 333.57 0.71L333.57 0.71Q332.59 0.71 331.95 0.54 331.3 0.37 330.92 0.02 330.54-0.32 330.39-0.82 330.23-1.32 330.23-1.95ZM356.54-1.76L356.54-1.76Q355.64-4.27 354.59-7.08 353.54-9.89 352.44-12.72 351.34-15.55 350.28-18.25 349.22-20.95 348.31-23.22L348.31-23.22Q347.46-25.34 346.69-27.28 345.92-29.22 345.32-30.81 344.73-32.4 344.31-33.54 343.9-34.69 343.77-35.25L343.77-35.25Q343.6-35.91 343.76-36.47 343.92-37.04 344.3-37.46 344.68-37.89 345.23-38.12 345.78-38.35 346.43-38.35L346.43-38.35Q348.19-38.35 348.88-36.79L348.88-36.79Q349.22-35.94 349.89-34.25 350.56-32.57 351.43-30.32 352.29-28.08 353.32-25.43 354.35-22.78 355.41-20.02 356.47-17.26 357.49-14.51 358.52-11.77 359.42-9.35L359.42-9.35Q360.38-11.84 361.34-14.39 362.3-16.94 363.23-19.41 364.16-21.88 365.01-24.17 365.87-26.46 366.59-28.45 367.31-30.44 367.89-32.06 368.48-33.67 368.85-34.77L368.85-34.77Q368.87-35.3 369.09-35.94 369.31-36.57 369.71-37.12 370.12-37.67 370.7-38.05 371.29-38.43 372.07-38.43L372.07-38.43Q372.63-38.43 373.17-38.21 373.71-37.99 374.12-37.61 374.54-37.23 374.79-36.69 375.05-36.16 375.05-35.55L375.05-35.55Q375.05-35.03 374.9-34.52 374.76-34.01 374.55-33.53 374.34-33.06 374.11-32.65 373.88-32.25 373.71-31.98L373.71-31.98 373.68-31.93Q372.53-29.3 371.58-26.98 370.63-24.66 369.77-22.49 368.92-20.31 368.15-18.25 367.38-16.19 366.6-14.06L366.6-14.06Q365.7-11.6 364.59-8.68 363.48-5.76 362.21-2.51L362.21-2.51Q362.26-2.32 362.28-2.1 362.3-1.88 362.3-1.68L362.3-1.68Q362.3-0.93 362.05-0.46 361.79 0 361.36 0.27 360.94 0.54 360.38 0.63 359.81 0.73 359.23 0.73L359.23 0.73Q358.52 0.73 358.07 0.51 357.62 0.29 357.32-0.07 357.03-0.44 356.86-0.88 356.69-1.32 356.54-1.76ZM380.59-2.76L380.59-2.76Q380.59-3.17 380.7-3.64 380.81-4.1 380.93-4.49L380.93-4.49 381.15-5.27 380.59-34.47Q380.59-35.67 380.87-36.33 381.15-36.99 381.59-37.3 382.03-37.62 382.6-37.67 383.18-37.72 383.76-37.72L383.76-37.72 396.63-37.72Q397.07-37.77 397.62-37.85 398.17-37.94 398.39-37.94L398.39-37.94Q399.31-37.94 399.89-37.77 400.46-37.6 400.79-37.27 401.12-36.94 401.23-36.45 401.34-35.96 401.34-35.3L401.34-35.3Q401.34-34.38 401.11-33.81 400.88-33.25 400.47-32.95 400.07-32.64 399.53-32.54 399-32.45 398.39-32.45L398.39-32.45Q398.12-32.45 397.68-32.46 397.24-32.47 396.75-32.52L396.75-32.52Q394.38-32.52 392.93-32.52 391.48-32.52 390.61-32.51 389.74-32.5 389.29-32.5 388.84-32.5 388.5-32.5L388.5-32.5 386.23-32.5 386.23-24.76Q386.37-24.76 386.58-24.74 386.79-24.73 387.23-24.73 387.67-24.73 388.44-24.73 389.21-24.73 390.5-24.73 391.79-24.73 393.7-24.73 395.6-24.73 398.31-24.73L398.31-24.73Q398.58-24.73 398.92-24.76 399.26-24.78 399.61-24.83L399.61-24.83Q400.05-24.88 400.63-24.93 401.22-24.98 401.9-24.98L401.9-24.98Q402.56-24.98 403.07-24.71 403.59-24.44 403.94-24.04 404.29-23.63 404.48-23.17 404.66-22.71 404.66-22.29L404.66-22.29Q404.66-20.97 403.79-20.36 402.93-19.75 401.56-19.75L401.56-19.75 386.23-19.73 386.23-5.1Q388.64-5.1 391.09-5.03 393.53-4.96 396.19-4.96L396.19-4.96Q396.92-4.96 397.53-5.03 398.14-5.1 398.7-5.2L398.7-5.2Q399.22-5.27 399.74-5.33 400.27-5.4 400.9-5.4L400.9-5.4Q401.63-5.4 402.26-5.29 402.88-5.18 403.34-4.9 403.81-4.61 404.07-4.14 404.34-3.66 404.34-2.93L404.34-2.93Q404.34-1.86 403.98-1.27 403.61-0.68 402.99-0.4 402.37-0.12 401.57-0.06 400.78 0 399.92 0L399.92 0 383.49 0Q382.86 0 382.33-0.15 381.81-0.29 381.42-0.62 381.03-0.95 380.81-1.48 380.59-2 380.59-2.76ZM413.01-2.71L413.01-2.71Q413.01-3.25 413.06-3.76 413.1-4.27 413.15-4.71L413.15-4.71Q413.15-8.11 413.15-10.96 413.15-13.82 413.15-16.3 413.15-18.77 413.15-20.95 413.15-23.12 413.15-25.16 413.15-27.2 413.17-29.16 413.18-31.13 413.18-33.18L413.18-33.18Q413.06-33.52 412.95-34.13 412.84-34.74 412.84-35.28L412.84-35.28Q412.84-35.79 412.99-36.3 413.15-36.82 413.48-37.22 413.81-37.62 414.3-37.87 414.79-38.11 415.42-38.11L415.42-38.11Q416.45-38.11 417.5-37.99 418.55-37.87 419.87-37.87L419.87-37.87Q420.97-37.87 422.06-37.98 423.16-38.09 424.41-38.11L424.41-38.11Q428.1-38.11 431.09-37.38 434.08-36.65 436.19-35.11 438.3-33.57 439.45-31.19 440.6-28.81 440.6-25.51L440.6-25.51Q440.6-22.39 439.73-19.96 438.86-17.53 437.51-15.72 436.15-13.92 434.48-12.71 432.81-11.5 431.22-10.86L431.22-10.86Q431.44-9.55 431.92-8.39 432.39-7.23 433.14-6.35 433.88-5.47 434.88-4.96 435.88-4.44 437.13-4.44L437.13-4.44Q438.06-4.44 438.82-4.74 439.59-5.03 440.16-5.88L440.16-5.88Q440.5-6.37 440.99-6.75 441.47-7.13 442.23-7.13L442.23-7.13Q443.55-7.13 444.28-6.4 445.01-5.66 445.01-4.54L445.01-4.54Q445.01-3.49 444.42-2.54 443.82-1.59 442.73-0.87 441.64-0.15 440.11 0.28 438.57 0.71 436.69 0.71L436.69 0.71Q434.96 0.71 433.55 0.21 432.15-0.29 431.04-1.14 429.93-1.98 429.07-3.06 428.22-4.15 427.61-5.33 427-6.52 426.61-7.69 426.22-8.86 426-9.89L426-9.89Q425.7-9.89 425.21-9.89 424.73-9.89 424.21-9.89 423.7-9.89 423.2-9.9 422.7-9.91 422.38-9.91L422.38-9.91Q421.67-9.94 420.64-9.95 419.6-9.96 418.74-9.96L418.74-9.96 418.74-6.4Q418.79-5.25 419.04-4.16 419.28-3.08 419.28-1.93L419.28-1.93Q419.28-1.22 419-0.73 418.72-0.24 418.28 0.09 417.84 0.42 417.33 0.56 416.82 0.71 416.35 0.71L416.35 0.71Q415.62 0.71 415.01 0.45 414.4 0.2 413.96-0.26 413.52-0.71 413.26-1.33 413.01-1.95 413.01-2.71ZM418.72-15.21L418.72-15.21Q419.35-15.19 420.21-15.16 421.06-15.14 421.85-15.11 422.63-15.09 423.24-15.08 423.85-15.06 424.02-15.06L424.02-15.06Q427.31-15.06 429.43-15.97 431.54-16.87 432.73-18.36 433.93-19.85 434.38-21.78 434.83-23.71 434.83-25.73L434.83-25.73Q434.83-27.51 434.27-28.75 433.71-29.98 432.78-30.79 431.85-31.59 430.68-32.06 429.51-32.52 428.3-32.74 427.09-32.96 425.93-33.01 424.77-33.06 423.9-33.06L423.9-33.06Q422.65-33.06 421.37-33.02 420.09-32.98 418.6-32.96L418.6-32.96Q418.55-32.03 418.54-31.27 418.52-30.52 418.51-29.8 418.5-29.08 418.5-28.33 418.5-27.59 418.5-26.66L418.5-26.66Q418.5-25 418.51-23.57 418.52-22.14 418.55-20.79 418.57-19.43 418.61-18.07 418.65-16.7 418.72-15.21ZM430.15-10.5L430.17-10.52Q430.15-10.52 430.15-10.5L430.15-10.5ZM430.15-10.5L430.12-10.5 430.15-10.5ZM450.14-8.76L450.14-8.76Q450.26-10.74 450.96-11.78 451.65-12.82 453.41-12.82L453.41-12.82Q454.51-12.82 455.29-12.19 456.07-11.57 456.07-10.47L456.07-10.47Q456.07-9.84 455.95-9.2 455.83-8.57 455.88-7.89L455.88-7.89Q455.97-7.06 456.61-6.37 457.24-5.69 458.22-5.19 459.2-4.69 460.44-4.41 461.69-4.13 462.98-4.13L462.98-4.13Q464.3-4.13 465.6-4.36 466.91-4.59 467.97-5.22 469.03-5.86 469.69-6.96 470.35-8.06 470.35-9.81L470.35-9.81Q470.35-10.96 469.79-11.98 469.23-12.99 468.35-13.83 467.47-14.67 466.41-15.36 465.35-16.04 464.37-16.55L464.37-16.55Q462.98-17.26 461.53-17.93 460.07-18.6 458.7-19.35 457.32-20.09 456.08-20.98 454.85-21.88 453.92-23.07 452.99-24.27 452.46-25.84 451.92-27.42 451.92-29.49L451.92-29.49Q451.92-31.81 452.91-33.5 453.9-35.18 455.51-36.28 457.12-37.38 459.21-37.9 461.3-38.43 463.49-38.43L463.49-38.43Q465.45-38.43 467.28-38.09 469.11-37.74 470.55-36.98 471.99-36.21 472.94-34.92 473.89-33.64 474.09-31.79L474.09-31.79Q474.14-31.1 473.92-30.58 473.7-30.05 473.31-29.7 472.92-29.35 472.42-29.16 471.92-28.98 471.4-28.98L471.4-28.98Q470.62-28.98 470.08-29.22 469.55-29.47 469.21-29.83 468.86-30.2 468.69-30.66 468.52-31.13 468.47-31.57L468.47-31.57Q468.11-32.15 467.52-32.53 466.94-32.91 466.22-33.14 465.49-33.37 464.71-33.46 463.93-33.54 463.2-33.54L463.2-33.54Q462.17-33.54 461.16-33.33 460.15-33.11 459.32-32.62 458.49-32.13 457.98-31.37 457.46-30.62 457.46-29.52L457.46-29.52Q457.46-28.22 458.07-27.22 458.68-26.22 459.61-25.44 460.54-24.66 461.67-24.02 462.81-23.39 463.88-22.85L463.88-22.85Q465.18-22.19 466.57-21.45 467.96-20.7 469.29-19.84 470.62-18.97 471.82-17.94 473.01-16.92 473.92-15.66 474.82-14.4 475.35-12.92 475.87-11.43 475.87-9.62L475.87-9.62Q475.87-7.69 475.33-6.18 474.8-4.66 473.87-3.52 472.94-2.37 471.7-1.56 470.45-0.76 469.01-0.24 467.57 0.27 466.02 0.5 464.47 0.73 462.93 0.73L462.93 0.73Q461.64 0.73 460.16 0.51 458.68 0.29 457.24-0.18 455.8-0.66 454.5-1.4 453.19-2.15 452.2-3.21 451.21-4.27 450.65-5.65 450.09-7.03 450.14-8.76ZM486.1-1.95L486.1-1.95Q486.1-3.2 486.28-4.41 486.46-5.62 486.46-6.98L486.46-6.98Q486.46-13.21 486.35-19.51 486.24-25.81 486.24-32.45L486.24-32.45Q486.24-33.13 486.1-33.83 485.95-34.52 485.95-35.33L485.95-35.33Q485.95-35.96 486.12-36.52 486.29-37.08 486.71-37.51 487.12-37.94 487.86-38.18 488.59-38.43 489.69-38.43L489.69-38.43Q490.79-38.43 491.42-37.6 492.05-36.77 492.05-35.38L492.05-35.38Q492.05-34.96 491.98-34.56 491.91-34.16 491.84-33.72L491.84-33.72Q491.79-31.62 491.76-29.2 491.74-26.78 491.74-23.66L491.74-23.66Q491.74-20.87 491.76-17.97 491.79-15.06 491.84-12.38 491.88-9.69 491.97-7.36 492.05-5.03 492.18-3.34L492.18-3.34 492.18-3.37Q492.23-3 492.26-2.67 492.3-2.34 492.3-2L492.3-2Q492.3-1.42 492.16-0.92 492.03-0.42 491.71-0.05 491.4 0.32 490.83 0.51 490.27 0.71 489.44 0.71L489.44 0.71Q488.47 0.71 487.82 0.54 487.17 0.37 486.79 0.02 486.42-0.32 486.26-0.82 486.1-1.32 486.1-1.95ZM509.63-3.27L509.68-32.23Q507.97-32.23 506.14-32.2 504.31-32.18 502.14-32.18L502.14-32.18Q501.55-32.18 501.11-32.45 500.67-32.71 500.38-33.14 500.08-33.57 499.94-34.11 499.79-34.64 499.79-35.18L499.79-35.18Q499.79-36.62 500.6-37.17 501.4-37.72 503.21-37.72L503.21-37.72 522.69-37.72Q523.18-37.72 523.71-37.6 524.23-37.48 524.66-37.16 525.08-36.84 525.37-36.33 525.65-35.82 525.65-35.01L525.65-35.01Q525.65-34.42 525.45-33.89 525.26-33.35 524.93-32.96 524.6-32.57 524.14-32.32 523.69-32.08 523.18-32.08L523.18-32.08Q522.79-32.08 522.42-32.15 522.06-32.23 521.64-32.23L521.64-32.23 515.34-32.23 515.27-4.69Q515.27-4.1 515.36-3.54 515.44-2.98 515.44-2.32L515.44-2.32Q515.44-1.78 515.34-1.25 515.25-0.71 514.93-0.27 514.61 0.17 514.03 0.45 513.44 0.73 512.49 0.73L512.49 0.73Q511.36 0.73 510.78 0.35 510.19-0.02 509.94-0.61 509.68-1.2 509.65-1.9 509.63-2.61 509.63-3.27L509.63-3.27ZM538.8-1.68L538.8-1.68Q538.8-2.56 538.83-3.26 538.85-3.96 538.89-4.7 538.92-5.44 538.96-6.35 539-7.25 539.01-8.57 539.02-9.89 539.01-11.74 539-13.6 538.95-16.24L538.95-16.24Q537.17-19.24 535.7-21.62 534.24-24 532.99-25.95 531.75-27.91 530.66-29.53 529.57-31.15 528.55-32.62L528.55-32.62Q527.91-33.54 527.5-34.28 527.08-35.01 527.08-35.6L527.08-35.6Q527.08-36.99 527.93-37.7 528.77-38.4 530.14-38.4L530.14-38.4Q530.67-38.4 531.12-38.09 531.58-37.77 531.95-37.27 532.33-36.77 532.65-36.15 532.97-35.52 533.21-34.91L533.21-34.91Q534.02-33.3 534.95-31.79 535.87-30.27 536.86-28.8 537.85-27.32 538.88-25.82 539.9-24.32 540.88-22.75L540.88-22.75 541.66-21.46 542.42-22.75Q545.15-26.98 547.14-30.18 549.13-33.37 550.11-35.25L550.11-35.25 550.08-35.25Q550.33-35.89 550.59-36.46 550.86-37.04 551.21-37.46 551.55-37.89 551.99-38.15 552.43-38.4 553.04-38.4L553.04-38.4Q553.57-38.4 554.11-38.29 554.65-38.18 555.07-37.87 555.5-37.55 555.77-37 556.04-36.45 556.04-35.57L556.04-35.57Q556.04-35.13 555.79-34.36 555.55-33.59 554.67-32.76L554.67-32.76Q553.18-30.44 551.69-28.14 550.2-25.83 548.85-23.69 547.49-21.56 546.32-19.64 545.15-17.72 544.32-16.19L544.32-16.19Q544.17-14.77 544.19-13.04 544.2-11.3 544.28-9.41 544.37-7.52 544.47-5.57 544.56-3.61 544.56-1.78L544.56-1.78Q544.56-1.29 544.43-0.83 544.3-0.37 543.98-0.02 543.66 0.32 543.1 0.52 542.54 0.73 541.71 0.73L541.71 0.73Q541.05 0.73 540.52 0.54 540 0.34 539.61 0.01 539.22-0.32 539.01-0.76 538.8-1.2 538.8-1.68Z" opacity="1" transform="matrix(1,0,0,1,0,0)" fill="black" class="wordmark-text-0" id="SvgjsPath1520"></path></svg></g></svg></g><g transform="matrix(1,0,0,1,0,34.59431879080995)"><svg viewBox="0 0 134.88989267481207 12.874116675489677" height="12.874116675489677" width="134.88989267481207"><g transform="matrix(1,0,0,1,8,0)"><svg width="118.88989267481207" viewBox="1.8451389444500002 -37 346.26486105555 37.5" height="12.874116675489677" data-palette-color="url(#f56f30c5-bfcb-47ea-b5b5-daa50bd6b8bb)"><path d="M2.25-4.1L2.25-4.1Q1.8-4.75 1.85-5.48 1.9-6.2 2.7-6.75L2.7-6.75Q3.2-7.1 3.88-7.05 4.55-7 5.1-6.4L5.1-6.4Q6.5-4.75 8.3-3.78 10.1-2.8 12.7-2.8L12.7-2.8Q13.9-2.85 15.1-3.2 16.3-3.55 17.13-4.42 17.95-5.3 17.95-6.75L17.95-6.75Q17.95-8.15 17.1-8.97 16.25-9.8 14.9-10.33 13.55-10.85 11.95-11.25L11.95-11.25Q10.3-11.7 8.7-12.28 7.1-12.85 5.83-13.73 4.55-14.6 3.78-15.93 3-17.25 3-19.15L3-19.15Q3-21.4 4.23-23.05 5.45-24.7 7.53-25.6 9.6-26.5 12.05-26.5L12.05-26.5Q13.45-26.5 14.98-26.18 16.5-25.85 17.95-25.08 19.4-24.3 20.5-22.95L20.5-22.95Q20.95-22.45 21-21.7 21.05-20.95 20.35-20.35L20.35-20.35Q19.8-19.95 19.13-20 18.45-20.05 18-20.5L18-20.5Q16.95-21.75 15.38-22.43 13.8-23.1 11.9-23.1L11.9-23.1Q10.7-23.1 9.55-22.75 8.4-22.4 7.63-21.58 6.85-20.75 6.85-19.3L6.85-19.3Q6.9-17.95 7.75-17.1 8.6-16.25 10.05-15.73 11.5-15.2 13.25-14.7L13.25-14.7Q14.85-14.3 16.32-13.78 17.8-13.25 19-12.4 20.2-11.55 20.9-10.23 21.6-8.9 21.6-6.9L21.6-6.9Q21.6-4.6 20.3-2.93 19-1.25 16.88-0.38 14.75 0.5 12.3 0.5L12.3 0.5Q9.55 0.5 6.88-0.55 4.2-1.6 2.25-4.1ZM39.9-26.25L39.9-26.25Q43.2-26.25 45.12-24.83 47.05-23.4 47.87-21.03 48.7-18.65 48.7-15.75L48.7-15.75 48.7-2.05Q48.7-1.2 48.12-0.6 47.55 0 46.7 0L46.7 0Q45.85 0 45.27-0.6 44.7-1.2 44.7-2.05L44.7-2.05 44.7-15.75Q44.7-17.65 44.15-19.18 43.6-20.7 42.32-21.63 41.05-22.55 38.85-22.55L38.85-22.55Q36.8-22.55 35.1-21.63 33.4-20.7 32.4-19.18 31.4-17.65 31.4-15.75L31.4-15.75 31.4-2.05Q31.4-1.2 30.82-0.6 30.25 0 29.4 0L29.4 0Q28.55 0 27.97-0.6 27.4-1.2 27.4-2.05L27.4-2.05 27.4-35Q27.4-35.85 27.97-36.43 28.55-37 29.4-37L29.4-37Q30.3-37 30.85-36.43 31.4-35.85 31.4-35L31.4-35 31.4-20.05 30.4-18.95Q30.65-20.25 31.5-21.58 32.35-22.9 33.65-23.95 34.95-25 36.55-25.63 38.15-26.25 39.9-26.25ZM59.95-24.25L59.95-2.05Q59.95-1.2 59.37-0.6 58.8 0 57.95 0L57.95 0Q57.05 0 56.5-0.6 55.95-1.2 55.95-2.05L55.95-2.05 55.95-24.25Q55.95-25.1 56.52-25.68 57.1-26.25 57.95-26.25L57.95-26.25Q58.8-26.25 59.37-25.68 59.95-25.1 59.95-24.25L59.95-24.25ZM57.95-29.6L57.95-29.6Q56.7-29.6 56.1-30.1 55.5-30.6 55.5-31.65L55.5-31.65 55.5-32.35Q55.5-33.4 56.15-33.9 56.8-34.4 58-34.4L58-34.4Q59.2-34.4 59.8-33.9 60.4-33.4 60.4-32.35L60.4-32.35 60.4-31.65Q60.4-30.6 59.77-30.1 59.15-29.6 57.95-29.6ZM79.99-26.5L79.99-26.5Q83.39-26.5 85.34-25.1 87.29-23.7 88.12-21.35 88.94-19 88.94-16.1L88.94-16.1 88.94-2.05Q88.94-1.2 88.37-0.6 87.79 0 86.94 0L86.94 0Q86.09 0 85.52-0.6 84.94-1.2 84.94-2.05L84.94-2.05 84.94-16Q84.94-17.9 84.37-19.43 83.79-20.95 82.47-21.88 81.14-22.8 78.84-22.8L78.84-22.8Q76.74-22.8 74.99-21.88 73.24-20.95 72.19-19.43 71.14-17.9 71.14-16L71.14-16 71.14-2.05Q71.14-1.2 70.57-0.6 69.99 0 69.14 0L69.14 0Q68.29 0 67.72-0.6 67.14-1.2 67.14-2.05L67.14-2.05 67.14-23.85Q67.14-24.7 67.72-25.28 68.29-25.85 69.14-25.85L69.14-25.85Q70.04-25.85 70.59-25.28 71.14-24.7 71.14-23.85L71.14-23.85 71.14-20.3 70.14-19.2Q70.39-20.5 71.29-21.83 72.19-23.15 73.54-24.2 74.89-25.25 76.54-25.88 78.19-26.5 79.99-26.5ZM108.04 0.5L108.04 0.5Q104.04 0.5 101.04-1.2 98.04-2.9 96.39-5.88 94.74-8.85 94.74-12.75L94.74-12.75Q94.74-17.1 96.47-20.18 98.19-23.25 100.94-24.88 103.69-26.5 106.79-26.5L106.79-26.5Q109.14-26.5 111.27-25.65 113.39-24.8 115.07-23.18 116.74-21.55 117.74-19.28 118.74-17 118.79-14.2L118.79-14.2Q118.74-13.4 118.14-12.85 117.54-12.3 116.74-12.3L116.74-12.3 96.99-12.3 96.09-15.75 115.34-15.75 114.54-15.05 114.54-16.15Q114.39-18.2 113.22-19.68 112.04-21.15 110.34-21.95 108.64-22.75 106.79-22.75L106.79-22.75Q105.29-22.75 103.82-22.23 102.34-21.7 101.17-20.53 99.99-19.35 99.29-17.5 98.59-15.65 98.59-13.05L98.59-13.05Q98.59-10.15 99.77-7.95 100.94-5.75 103.04-4.48 105.14-3.2 107.89-3.2L107.89-3.2Q109.69-3.2 110.99-3.65 112.29-4.1 113.22-4.78 114.14-5.45 114.79-6.15L114.79-6.15Q115.44-6.6 116.09-6.6L116.09-6.6Q116.79-6.6 117.29-6.1 117.79-5.6 117.79-4.9L117.79-4.9Q117.79-4.05 116.99-3.4L116.99-3.4Q115.54-1.85 113.17-0.68 110.79 0.5 108.04 0.5ZM142.69-35L142.69-2.05Q142.69-1.2 142.09-0.6 141.49 0 140.64 0L140.64 0Q139.79 0 139.24-0.6 138.69-1.2 138.69-2.05L138.69-2.05 138.69-35Q138.69-35.85 139.26-36.43 139.84-37 140.69-37L140.69-37Q141.59-37 142.14-36.43 142.69-35.85 142.69-35L142.69-35ZM154.28-24.25L154.28-2.05Q154.28-1.2 153.71-0.6 153.13 0 152.28 0L152.28 0Q151.38 0 150.83-0.6 150.28-1.2 150.28-2.05L150.28-2.05 150.28-24.25Q150.28-25.1 150.86-25.68 151.43-26.25 152.28-26.25L152.28-26.25Q153.13-26.25 153.71-25.68 154.28-25.1 154.28-24.25L154.28-24.25ZM152.28-29.6L152.28-29.6Q151.03-29.6 150.43-30.1 149.83-30.6 149.83-31.65L149.83-31.65 149.83-32.35Q149.83-33.4 150.48-33.9 151.13-34.4 152.33-34.4L152.33-34.4Q153.53-34.4 154.13-33.9 154.73-33.4 154.73-32.35L154.73-32.35 154.73-31.65Q154.73-30.6 154.11-30.1 153.48-29.6 152.28-29.6ZM163.88 0L163.88 0Q162.98 0 162.43-0.6 161.88-1.2 161.88-2.05L161.88-2.05 161.88-35Q161.88-35.85 162.43-36.43 162.98-37 163.88-37L163.88-37Q164.73-37 165.31-36.43 165.88-35.85 165.88-35L165.88-35 165.88-2.05Q165.88-1.2 165.31-0.6 164.73 0 163.88 0ZM180.48-26L180.48-26Q181.28-26 181.86-25.38 182.43-24.75 182.43-24.1L182.43-24.1Q182.43-23.25 181.63-22.6L181.63-22.6 165.43-8.45 165.28-13.1 179.08-25.4Q179.68-26 180.48-26ZM181.03-0.05L181.03-0.05Q180.18-0.05 179.53-0.7L179.53-0.7 168.88-12.05 171.88-14.8 182.43-3.5Q183.03-2.85 183.03-2L183.03-2Q183.03-1.1 182.33-0.58 181.63-0.05 181.03-0.05ZM199.43 0.5L199.43 0.5Q195.43 0.5 192.43-1.2 189.43-2.9 187.78-5.88 186.13-8.85 186.13-12.75L186.13-12.75Q186.13-17.1 187.85-20.18 189.58-23.25 192.33-24.88 195.08-26.5 198.18-26.5L198.18-26.5Q200.53-26.5 202.65-25.65 204.78-24.8 206.45-23.18 208.13-21.55 209.13-19.28 210.13-17 210.18-14.2L210.18-14.2Q210.13-13.4 209.53-12.85 208.93-12.3 208.13-12.3L208.13-12.3 188.38-12.3 187.48-15.75 206.73-15.75 205.93-15.05 205.93-16.15Q205.78-18.2 204.6-19.68 203.43-21.15 201.73-21.95 200.03-22.75 198.18-22.75L198.18-22.75Q196.68-22.75 195.2-22.23 193.73-21.7 192.55-20.53 191.38-19.35 190.68-17.5 189.98-15.65 189.98-13.05L189.98-13.05Q189.98-10.15 191.15-7.95 192.33-5.75 194.43-4.48 196.53-3.2 199.28-3.2L199.28-3.2Q201.08-3.2 202.38-3.65 203.68-4.1 204.6-4.78 205.53-5.45 206.18-6.15L206.18-6.15Q206.83-6.6 207.48-6.6L207.48-6.6Q208.18-6.6 208.68-6.1 209.18-5.6 209.18-4.9L209.18-4.9Q209.18-4.05 208.38-3.4L208.38-3.4Q206.93-1.85 204.55-0.68 202.18 0.5 199.43 0.5ZM250.72-26.1L250.72-26.1Q251.62-26.1 252.17-25.53 252.72-24.95 252.72-24.1L252.72-24.1 252.72-2.05Q252.72-1.2 252.15-0.6 251.57 0 250.72 0L250.72 0Q249.87 0 249.3-0.6 248.72-1.2 248.72-2.05L248.72-2.05 248.72-6.8 249.67-6.9Q249.67-5.8 248.92-4.5 248.17-3.2 246.87-2.08 245.57-0.95 243.82-0.23 242.07 0.5 240.02 0.5L240.02 0.5Q236.62 0.5 233.9-1.28 231.17-3.05 229.62-6.1 228.07-9.15 228.07-13.05L228.07-13.05Q228.07-17 229.65-20.03 231.22-23.05 233.9-24.78 236.57-26.5 239.92-26.5L239.92-26.5Q242.07-26.5 243.92-25.8 245.77-25.1 247.15-23.9 248.52-22.7 249.27-21.25 250.02-19.8 250.02-18.35L250.02-18.35 248.72-18.65 248.72-24.1Q248.72-24.95 249.3-25.53 249.87-26.1 250.72-26.1ZM240.42-3.2L240.42-3.2Q242.92-3.2 244.85-4.5 246.77-5.8 247.87-8.03 248.97-10.25 248.97-13.05L248.97-13.05Q248.97-15.8 247.87-18.03 246.77-20.25 244.85-21.53 242.92-22.8 240.42-22.8L240.42-22.8Q237.97-22.8 236.05-21.55 234.12-20.3 233.02-18.1 231.92-15.9 231.92-13.05L231.92-13.05Q231.92-10.25 233.02-8.03 234.12-5.8 236.05-4.5 237.97-3.2 240.42-3.2ZM272.42-4.1L272.42-4.1Q271.97-4.75 272.02-5.48 272.07-6.2 272.87-6.75L272.87-6.75Q273.37-7.1 274.04-7.05 274.72-7 275.27-6.4L275.27-6.4Q276.67-4.75 278.47-3.78 280.27-2.8 282.87-2.8L282.87-2.8Q284.07-2.85 285.27-3.2 286.47-3.55 287.29-4.42 288.12-5.3 288.12-6.75L288.12-6.75Q288.12-8.15 287.27-8.97 286.42-9.8 285.07-10.33 283.72-10.85 282.12-11.25L282.12-11.25Q280.47-11.7 278.87-12.28 277.27-12.85 275.99-13.73 274.72-14.6 273.94-15.93 273.17-17.25 273.17-19.15L273.17-19.15Q273.17-21.4 274.39-23.05 275.62-24.7 277.69-25.6 279.77-26.5 282.22-26.5L282.22-26.5Q283.62-26.5 285.14-26.18 286.67-25.85 288.12-25.08 289.57-24.3 290.67-22.95L290.67-22.95Q291.12-22.45 291.17-21.7 291.22-20.95 290.52-20.35L290.52-20.35Q289.97-19.95 289.29-20 288.62-20.05 288.17-20.5L288.17-20.5Q287.12-21.75 285.54-22.43 283.97-23.1 282.07-23.1L282.07-23.1Q280.87-23.1 279.72-22.75 278.57-22.4 277.79-21.58 277.02-20.75 277.02-19.3L277.02-19.3Q277.07-17.95 277.92-17.1 278.77-16.25 280.22-15.73 281.67-15.2 283.42-14.7L283.42-14.7Q285.02-14.3 286.49-13.78 287.97-13.25 289.17-12.4 290.37-11.55 291.07-10.23 291.77-8.9 291.77-6.9L291.77-6.9Q291.77-4.6 290.47-2.93 289.17-1.25 287.04-0.38 284.92 0.5 282.47 0.5L282.47 0.5Q279.72 0.5 277.04-0.55 274.37-1.6 272.42-4.1ZM316.92-25.85L316.92-25.85Q317.82-25.85 318.37-25.28 318.92-24.7 318.92-23.85L318.92-23.85 318.92-10.2Q318.92-5.15 316.09-2.38 313.27 0.4 308.22 0.4L308.22 0.4Q303.22 0.4 300.39-2.38 297.57-5.15 297.57-10.2L297.57-10.2 297.57-23.85Q297.57-24.7 298.14-25.28 298.72-25.85 299.57-25.85L299.57-25.85Q300.47-25.85 301.02-25.28 301.57-24.7 301.57-23.85L301.57-23.85 301.57-10.2Q301.57-6.8 303.32-5.05 305.07-3.3 308.22-3.3L308.22-3.3Q311.47-3.3 313.19-5.05 314.92-6.8 314.92-10.2L314.92-10.2 314.92-23.85Q314.92-24.7 315.49-25.28 316.07-25.85 316.92-25.85ZM339.16-26.5L339.16-26.5Q342.56-26.5 344.51-25.1 346.46-23.7 347.29-21.35 348.11-19 348.11-16.1L348.11-16.1 348.11-2.05Q348.11-1.2 347.54-0.6 346.96 0 346.11 0L346.11 0Q345.26 0 344.69-0.6 344.11-1.2 344.11-2.05L344.11-2.05 344.11-16Q344.11-17.9 343.54-19.43 342.96-20.95 341.64-21.88 340.31-22.8 338.01-22.8L338.01-22.8Q335.91-22.8 334.16-21.88 332.41-20.95 331.36-19.43 330.31-17.9 330.31-16L330.31-16 330.31-2.05Q330.31-1.2 329.74-0.6 329.16 0 328.31 0L328.31 0Q327.46 0 326.89-0.6 326.31-1.2 326.31-2.05L326.31-2.05 326.31-23.85Q326.31-24.7 326.89-25.28 327.46-25.85 328.31-25.85L328.31-25.85Q329.21-25.85 329.76-25.28 330.31-24.7 330.31-23.85L330.31-23.85 330.31-20.3 329.31-19.2Q329.56-20.5 330.46-21.83 331.36-23.15 332.71-24.2 334.06-25.25 335.71-25.88 337.36-26.5 339.16-26.5Z" opacity="1" transform="matrix(1,0,0,1,0,0)" fill="black" class="slogan-text-1" id="SvgjsPath1519"></path></svg></g></svg></g></svg></g></svg></g><g></g></svg></g><defs><mask></mask></defs></svg><rect width="395.52" height="47.468435466299624" fill="black" stroke="none" visibility="hidden"></rect></g></mask></svg><rect width="395.52" height="47.468435466299624" fill="black" stroke="none" visibility="hidden"></rect></g></mask><linearGradient x1="0.054" x2="0.941" y1="0.5" y2="0.5" id="f56f30c5-bfcb-47ea-b5b5-daa50bd6b8bb"><stop stop-color="#0f3054" offset="0"></stop><stop stop-color="#3b8dcb" offset="0.498"></stop><stop stop-color="#0f3054" offset="1"></stop></linearGradient><rect width="395.52" height="47.468435466299624" fill="#000000" mask="url(#33633d72-c9e3-4244-aca6-ce8ced26b57e)" data-fill-palette-color="secondary"></rect></svg><rect width="395.52" height="47.468435466299624" fill="none" stroke="none" visibility="hidden"></rect></g></svg></g></svg>